M48
;DRILL file {KiCad 4.0.6} date Mon Aug  6 17:54:55 2018
;FORMAT={-:-/ absolute / inch / decimal}
FMAT,2
INCH,TZ
T1C0.016
T2C0.030
T3C0.035
T4C0.039
T5C0.051
T6C0.071
T7C0.110
%
G90
G05
M72
T1
X4.925Y-3.975
X4.9463Y-6.8
X5.Y-3.675
X5.075Y-3.825
X5.155Y-3.725
X5.175Y-3.85
X5.18Y-3.75
X5.2376Y-6.6356
X5.25Y-3.7
X5.4463Y-6.8
X5.45Y-3.975
X5.525Y-3.675
X5.6Y-3.825
X5.65Y-6.45
X5.675Y-3.725
X5.7Y-3.75
X5.7Y-3.85
X5.7Y-4.025
X5.7Y-6.425
X5.725Y-4.
X5.7376Y-6.6356
X5.75Y-4.025
X5.75Y-6.4
X5.76Y-5.88
X5.775Y-3.7
X5.8Y-2.325
X5.8Y-6.375
X5.85Y-2.525
X5.85Y-6.35
X5.9Y-4.075
X5.9Y-4.1
X5.9Y-4.125
X5.9Y-4.475
X5.9Y-4.5
X5.9Y-4.525
X5.9Y-4.875
X5.9Y-4.9
X5.9Y-4.925
X5.9Y-5.275
X5.9Y-5.3
X5.9Y-5.325
X5.9Y-5.675
X5.9Y-5.7
X5.9Y-5.725
X5.9Y-6.325
X5.925Y-4.075
X5.925Y-4.1
X5.925Y-4.125
X5.925Y-4.475
X5.925Y-4.5
X5.925Y-4.525
X5.925Y-4.875
X5.925Y-4.9
X5.925Y-4.925
X5.925Y-5.275
X5.925Y-5.3
X5.925Y-5.325
X5.925Y-5.675
X5.925Y-5.7
X5.925Y-5.725
X5.9463Y-6.8
X5.95Y-4.075
X5.95Y-4.1
X5.95Y-4.125
X5.95Y-4.475
X5.95Y-4.5
X5.95Y-4.525
X5.95Y-4.875
X5.95Y-4.9
X5.95Y-4.925
X5.95Y-5.275
X5.95Y-5.3
X5.95Y-5.325
X5.95Y-5.675
X5.95Y-5.7
X5.95Y-5.725
X5.95Y-6.3
X5.975Y-4.075
X5.975Y-4.1
X5.975Y-4.125
X5.975Y-4.475
X5.975Y-4.5
X5.975Y-4.525
X5.975Y-4.875
X5.975Y-4.9
X5.975Y-4.925
X5.975Y-5.275
X5.975Y-5.3
X5.975Y-5.325
X5.975Y-5.675
X5.975Y-5.7
X5.975Y-5.725
X6.Y-2.475
X6.Y-4.075
X6.Y-4.1
X6.Y-4.125
X6.Y-4.475
X6.Y-4.5
X6.Y-4.525
X6.Y-4.875
X6.Y-4.9
X6.Y-4.925
X6.Y-5.275
X6.Y-5.3
X6.Y-5.325
X6.Y-5.675
X6.Y-5.7
X6.Y-5.725
X6.Y-6.275
X6.025Y-4.075
X6.025Y-4.1
X6.025Y-4.125
X6.025Y-4.475
X6.025Y-4.5
X6.025Y-4.525
X6.025Y-4.875
X6.025Y-4.9
X6.025Y-4.925
X6.025Y-5.275
X6.025Y-5.3
X6.025Y-5.325
X6.025Y-5.675
X6.025Y-5.7
X6.025Y-5.725
X6.05Y-4.075
X6.05Y-4.1
X6.05Y-4.125
X6.05Y-4.475
X6.05Y-4.5
X6.05Y-4.525
X6.05Y-4.875
X6.05Y-4.9
X6.05Y-4.925
X6.05Y-5.275
X6.05Y-5.3
X6.05Y-5.325
X6.05Y-5.675
X6.05Y-5.7
X6.05Y-5.725
X6.05Y-6.25
X6.075Y-4.075
X6.075Y-4.1
X6.075Y-4.125
X6.075Y-4.475
X6.075Y-4.5
X6.075Y-4.525
X6.075Y-4.875
X6.075Y-4.9
X6.075Y-4.925
X6.075Y-5.275
X6.075Y-5.3
X6.075Y-5.325
X6.075Y-5.675
X6.075Y-5.7
X6.075Y-5.725
X6.1Y-4.075
X6.1Y-4.1
X6.1Y-4.125
X6.1Y-4.475
X6.1Y-4.5
X6.1Y-4.525
X6.1Y-4.875
X6.1Y-4.9
X6.1Y-4.925
X6.1Y-5.275
X6.1Y-5.3
X6.1Y-5.325
X6.1Y-5.675
X6.1Y-5.7
X6.1Y-5.725
X6.1Y-6.225
X6.15Y-6.175
X6.2Y-6.2
X6.2376Y-6.6356
X6.25Y-6.125
X6.3Y-6.15
X6.35Y-6.075
X6.4Y-6.1
X6.4463Y-6.8
X6.45Y-6.025
X6.5Y-6.05
X6.575Y-2.5756
X6.675Y-2.5756
X6.68Y-4.18
X6.68Y-4.22
X6.68Y-4.58
X6.68Y-4.62
X6.68Y-4.98
X6.68Y-5.02
X6.68Y-5.38
X6.68Y-5.42
X6.68Y-5.78
X6.68Y-5.82
X6.725Y-4.18
X6.725Y-4.22
X6.725Y-4.58
X6.725Y-4.62
X6.725Y-4.98
X6.725Y-5.02
X6.725Y-5.38
X6.725Y-5.42
X6.725Y-5.78
X6.725Y-5.82
X6.7376Y-6.6356
X6.77Y-4.18
X6.77Y-4.22
X6.77Y-4.58
X6.77Y-4.62
X6.77Y-4.98
X6.77Y-5.02
X6.77Y-5.38
X6.77Y-5.42
X6.77Y-5.78
X6.77Y-5.82
X6.775Y-2.5756
X6.8Y-6.425
X6.825Y-6.45
X6.85Y-6.375
X6.925Y-6.4
X6.9463Y-6.8
X6.95Y-5.7
X6.96Y-3.9
X7.075Y-3.825
X7.1Y-5.025
X7.125Y-5.975
X7.175Y-4.5
X7.175Y-5.3
X7.2376Y-6.6356
X7.275Y-3.7
X7.275Y-4.5
X7.275Y-5.3
X7.3Y-3.15
X7.3Y-4.
X7.325Y-3.95
X7.34Y-3.725
X7.35Y-4.9
X7.35Y-6.
X7.3539Y-3.4312
X7.375Y-2.2956
X7.375Y-2.7544
X7.375Y-3.75
X7.4Y-2.4354
X7.425Y-4.5
X7.425Y-5.3
X7.4463Y-6.8
X7.45Y-4.025
X7.45Y-6.3
X7.475Y-2.475
X7.5Y-2.5
X7.5Y-6.275
X7.525Y-4.5
X7.525Y-5.3
X7.5394Y-4.1
X7.5394Y-4.9
X7.54Y-3.3
X7.575Y-6.35
X7.6Y-6.325
X7.625Y-6.2
X7.65Y-2.6
X7.65Y-2.65
X7.66Y-3.84
X7.675Y-4.5
X7.675Y-4.625
X7.675Y-4.9
X7.675Y-5.3
X7.675Y-5.425
X7.675Y-5.8
X7.675Y-6.175
X7.7Y-2.2091
X7.7Y-6.25
X7.7376Y-6.6356
X7.74Y-3.8
X7.75Y-6.225
X7.775Y-2.25
X7.775Y-2.95
X7.8Y-2.2
X7.8Y-2.925
X7.85Y-5.975
X7.925Y-3.075
X7.93Y-4.38
X7.93Y-4.42
X7.93Y-4.78
X7.93Y-4.82
X7.93Y-5.18
X7.93Y-5.22
X7.93Y-5.58
X7.93Y-5.62
X7.9313Y-2.2824
X7.9463Y-6.8
X7.95Y-3.3
X7.95Y-6.3244
X7.975Y-4.38
X7.975Y-4.42
X7.975Y-4.78
X7.975Y-4.82
X7.975Y-5.18
X7.975Y-5.22
X7.975Y-5.58
X7.975Y-5.62
X8.02Y-4.38
X8.02Y-4.42
X8.02Y-4.78
X8.02Y-4.82
X8.02Y-5.18
X8.02Y-5.22
X8.02Y-5.58
X8.02Y-5.62
X8.025Y-3.075
X8.05Y-3.3
X8.05Y-4.
X8.075Y-6.
X8.0976Y-4.
X8.125Y-3.075
X8.15Y-2.25
X8.15Y-2.3
X8.15Y-3.3
X8.2Y-2.175
X8.225Y-3.075
X8.2376Y-6.6356
X8.25Y-3.3
X8.25Y-3.6006
X8.25Y-3.7994
X8.275Y-6.2
X8.325Y-3.075
X8.325Y-6.1
X8.35Y-6.075
X8.3694Y-3.2194
X8.375Y-6.15
X8.4Y-6.125
X8.425Y-3.075
X8.4463Y-6.8
X8.45Y-3.6006
X8.45Y-3.7994
X8.475Y-3.2
X8.525Y-2.15
X8.525Y-3.075
X8.575Y-3.15
X8.6Y-4.275
X8.6Y-4.3
X8.6Y-4.325
X8.6Y-4.675
X8.6Y-4.7
X8.6Y-4.725
X8.6Y-5.075
X8.6Y-5.1
X8.6Y-5.125
X8.6Y-5.475
X8.6Y-5.5
X8.6Y-5.525
X8.625Y-3.075
X8.625Y-4.275
X8.625Y-4.3
X8.625Y-4.325
X8.625Y-4.675
X8.625Y-4.7
X8.625Y-4.725
X8.625Y-5.075
X8.625Y-5.1
X8.625Y-5.125
X8.625Y-5.475
X8.625Y-5.5
X8.625Y-5.525
X8.65Y-3.6006
X8.65Y-3.7994
X8.65Y-4.275
X8.65Y-4.3
X8.65Y-4.325
X8.65Y-4.675
X8.65Y-4.7
X8.65Y-4.725
X8.65Y-5.075
X8.65Y-5.1
X8.65Y-5.125
X8.65Y-5.475
X8.65Y-5.5
X8.65Y-5.525
X8.675Y-4.275
X8.675Y-4.3
X8.675Y-4.325
X8.675Y-4.675
X8.675Y-4.7
X8.675Y-4.725
X8.675Y-5.075
X8.675Y-5.1
X8.675Y-5.125
X8.675Y-5.475
X8.675Y-5.5
X8.675Y-5.525
X8.7Y-3.1
X8.7Y-4.275
X8.7Y-4.3
X8.7Y-4.325
X8.7Y-4.675
X8.7Y-4.7
X8.7Y-4.725
X8.7Y-5.075
X8.7Y-5.1
X8.7Y-5.125
X8.7Y-5.475
X8.7Y-5.5
X8.7Y-5.525
X8.725Y-4.275
X8.725Y-4.3
X8.725Y-4.325
X8.725Y-4.675
X8.725Y-4.7
X8.725Y-4.725
X8.725Y-5.075
X8.725Y-5.1
X8.725Y-5.125
X8.725Y-5.475
X8.725Y-5.5
X8.725Y-5.525
X8.7376Y-6.6356
X8.75Y-4.275
X8.75Y-4.3
X8.75Y-4.325
X8.75Y-4.675
X8.75Y-4.7
X8.75Y-4.725
X8.75Y-5.075
X8.75Y-5.1
X8.75Y-5.125
X8.75Y-5.475
X8.75Y-5.5
X8.75Y-5.525
X8.775Y-3.075
X8.775Y-4.275
X8.775Y-4.3
X8.775Y-4.325
X8.775Y-4.675
X8.775Y-4.7
X8.775Y-4.725
X8.775Y-5.075
X8.775Y-5.1
X8.775Y-5.125
X8.775Y-5.475
X8.775Y-5.5
X8.775Y-5.525
X8.8Y-3.05
X8.8Y-4.275
X8.8Y-4.3
X8.8Y-4.325
X8.8Y-4.675
X8.8Y-4.7
X8.8Y-4.725
X8.8Y-5.075
X8.8Y-5.1
X8.8Y-5.125
X8.8Y-5.475
X8.8Y-5.5
X8.8Y-5.525
X8.825Y-4.525
X8.825Y-4.925
X8.825Y-5.325
X8.85Y-2.45
X8.85Y-3.6006
X8.85Y-3.7994
X8.875Y-2.3
X8.875Y-3.025
X8.9Y-3.
X8.9463Y-6.8
X8.95Y-6.05
X8.975Y-5.
X8.975Y-5.4
X8.975Y-6.025
X9.05Y-4.55
X9.1Y-5.975
X9.1518Y-3.8988
X9.1518Y-3.9933
X9.1518Y-4.0878
X9.1518Y-4.1823
X9.1518Y-4.2768
X9.1518Y-4.3713
X9.1518Y-4.4657
X9.225Y-3.8
X9.2376Y-6.6356
X9.25Y-3.65
X9.25Y-5.0012
X9.25Y-5.0957
X9.2807Y-6.2988
X9.325Y-6.
X9.3487Y-3.8988
X9.3487Y-3.9303
X9.3487Y-3.9618
X9.3487Y-3.9933
X9.3487Y-4.0248
X9.3487Y-4.0563
X9.3487Y-4.0878
X9.3487Y-4.1193
X9.3487Y-4.1508
X9.3487Y-4.1823
X9.3487Y-4.2138
X9.3487Y-4.2453
X9.3487Y-4.2768
X9.3487Y-4.3083
X9.3487Y-4.3398
X9.3487Y-4.3713
X9.3487Y-4.4657
X9.3487Y-4.8752
X9.4Y-3.7749
X9.4106Y-2.3325
X9.525Y-2.45
X9.525Y-4.
X9.525Y-4.65
X9.55Y-2.3
X9.55Y-6.125
X9.582Y-2.5376
X9.6Y-4.025
X9.6Y-4.625
X9.6Y-4.675
X9.6Y-5.325
X9.6469Y-2.2
X9.65Y-2.775
X9.65Y-3.575
X9.65Y-6.7008
X9.675Y-3.75
X9.675Y-4.05
X9.675Y-4.6
X9.675Y-4.7
X9.675Y-5.3
X9.7Y-2.65
X9.7Y-6.8
X9.75Y-3.725
X9.75Y-4.075
X9.75Y-4.575
X9.75Y-4.725
X9.75Y-5.275
X9.75Y-6.825
X9.775Y-2.45
X9.825Y-2.275
X9.825Y-2.3124
X9.825Y-4.1
X9.825Y-4.55
X9.825Y-4.75
X9.825Y-5.25
X9.8496Y-2.55
X9.85Y-6.7008
X9.9Y-4.125
X9.9Y-4.525
X9.9Y-4.775
X9.9Y-5.225
X9.95Y-6.7008
X9.975Y-4.15
X9.975Y-4.5
X9.975Y-4.8
X9.975Y-5.2
X10.025Y-2.4
X10.05Y-4.175
X10.05Y-4.475
X10.05Y-4.825
X10.05Y-5.175
X10.05Y-6.7008
X10.1Y-3.8
X10.1Y-4.35
X10.125Y-2.425
X10.125Y-3.775
X10.125Y-4.375
X10.125Y-4.85
X10.125Y-5.15
X10.15Y-6.7008
X10.175Y-4.175
X10.175Y-4.475
X10.2Y-4.225
X10.2Y-4.5
X10.2Y-5.175
X10.225Y-4.925
X10.2303Y-4.15
X10.2303Y-4.825
X10.238Y-4.55
X10.238Y-5.225
X10.25Y-5.175
X10.2636Y-4.1
X10.2636Y-4.775
X10.2744Y-4.6
X10.2744Y-5.275
X10.275Y-4.825
X10.3Y-4.05
X10.3Y-4.525
X10.3Y-4.725
X10.3Y-5.2
X10.32Y-3.45
X10.325Y-4.125
X10.325Y-4.65
X10.325Y-4.8
X10.3333Y-5.325
X10.35Y-4.
X10.35Y-4.575
X10.35Y-4.675
X10.35Y-5.25
X10.36Y-3.475
X10.375Y-4.075
X10.375Y-4.75
X10.4Y-3.35
X10.4Y-5.3
X10.4152Y-4.625
X10.4154Y-4.7
X10.425Y-4.025
X10.44Y-3.375
X10.45Y-4.275
X10.45Y-4.95
X10.475Y-4.7
X10.475Y-5.05
X10.48Y-3.25
X10.5Y-5.025
X10.5Y-6.5626
X10.5006Y-4.3
X10.52Y-3.275
X10.525Y-4.275
X10.55Y-4.7242
X10.55Y-4.875
X10.56Y-3.15
X10.6Y-3.175
X10.64Y-3.05
X10.68Y-3.075
X10.72Y-3.4
X10.72Y-4.02
X10.76Y-3.425
X10.8Y-3.3
X10.8Y-6.5626
X10.84Y-3.025
X10.88Y-3.
X10.9018Y-3.8988
X10.9018Y-3.9933
X10.92Y-3.125
X10.96Y-3.1
X10.975Y-4.225
X11.Y-3.225
X11.Y-4.2768
X11.Y-4.3713
X11.Y-4.45
X11.Y-4.6862
X11.Y-4.7807
X11.Y-5.0012
X11.Y-5.1587
X11.04Y-3.2
X11.0987Y-3.8988
X11.0987Y-3.9933
X11.0987Y-4.8752
X11.1Y-3.325
X11.1Y-6.5626
X11.175Y-4.2
X11.2Y-4.05
T2
X4.2Y-2.9
X4.2Y-3.
X4.2Y-3.1
X4.2Y-3.2
X4.2Y-3.3
X4.2Y-3.4
X4.2Y-3.5
X4.2Y-3.6
X4.2Y-3.7
X4.2Y-3.8
X4.2Y-3.9
X4.2Y-4.
X4.2Y-4.1
X4.2Y-4.2
X4.2Y-4.3
X4.2Y-4.4
X4.2Y-4.5
X4.2Y-4.6
X4.2Y-4.7
X4.2Y-4.8
X4.2Y-4.9
X4.2Y-5.
X4.2Y-5.1
X4.2Y-5.2
X4.2Y-5.3
X4.2Y-5.4
X4.2Y-5.5
X4.2Y-5.6
X4.2Y-5.7
X4.2Y-5.8
X4.2Y-5.9
X4.2Y-6.
X4.3Y-2.9
X4.3Y-3.
X4.3Y-3.1
X4.3Y-3.2
X4.3Y-3.3
X4.3Y-3.4
X4.3Y-3.5
X4.3Y-3.6
X4.3Y-3.7
X4.3Y-3.8
X4.3Y-3.9
X4.3Y-4.
X4.3Y-4.1
X4.3Y-4.2
X4.3Y-4.3
X4.3Y-4.4
X4.3Y-4.5
X4.3Y-4.6
X4.3Y-4.7
X4.3Y-4.8
X4.3Y-4.9
X4.3Y-5.
X4.3Y-5.1
X4.3Y-5.2
X4.3Y-5.3
X4.3Y-5.4
X4.3Y-5.5
X4.3Y-5.6
X4.3Y-5.7
X4.3Y-5.8
X4.3Y-5.9
X4.3Y-6.
X4.4Y-2.9
X4.4Y-3.
X4.4Y-3.1
X4.4Y-3.2
X4.4Y-3.3
X4.4Y-3.4
X4.4Y-3.5
X4.4Y-3.6
X4.4Y-3.7
X4.4Y-3.8
X4.4Y-3.9
X4.4Y-4.
X4.4Y-4.1
X4.4Y-4.2
X4.4Y-4.3
X4.4Y-4.4
X4.4Y-4.5
X4.4Y-4.6
X4.4Y-4.7
X4.4Y-4.8
X4.4Y-4.9
X4.4Y-5.
X4.4Y-5.1
X4.4Y-5.2
X4.4Y-5.3
X4.4Y-5.4
X4.4Y-5.5
X4.4Y-5.6
X4.4Y-5.7
X4.4Y-5.8
X4.4Y-5.9
X4.4Y-6.
T3
X4.15Y-6.65
X4.15Y-6.85
X4.25Y-6.75
X4.35Y-6.65
X4.35Y-6.85
T4
X11.4Y-2.5
X11.4Y-2.6
X11.4Y-2.7
X11.4Y-2.8
X11.4Y-2.9
X11.4Y-3.
X11.4Y-3.15
X11.4Y-3.25
X11.4Y-3.35
X11.4Y-3.45
X11.4Y-3.55
X11.4Y-3.65
X11.4Y-3.8
X11.4Y-3.9
X11.4Y-4.
X11.4Y-4.1
X11.4Y-4.2
X11.4Y-4.3
X11.4Y-4.45
X11.4Y-4.55
X11.4Y-4.65
X11.4Y-4.75
X11.4Y-4.85
X11.4Y-4.95
X11.4Y-5.1
X11.4Y-5.2
X11.4Y-5.3
X11.4Y-5.4
X11.4Y-5.5
X11.4Y-5.6
X11.4Y-5.75
X11.4Y-5.85
X11.4Y-5.95
X11.4Y-6.05
X11.4Y-6.15
X11.4Y-6.25
X11.4Y-6.4
X11.4Y-6.5
X11.4Y-6.6
X11.4Y-6.7
X11.4Y-6.8
X11.4Y-6.9
T5
X4.2Y-2.25
X4.5748Y-2.25
T6
X10.7211Y-2.1346
X10.7211Y-2.3
X10.9376Y-2.1346
X10.9376Y-2.3
T7
X4.1Y-2.7
X4.1Y-6.2
T0
M30
