G04 #@! TF.FileFunction,Soldermask,Top*
%FSLAX46Y46*%
G04 Gerber Fmt 4.6, Leading zero omitted, Abs format (unit mm)*
G04 Created by KiCad (PCBNEW 4.0.6) date Mon Aug  6 11:21:29 2018*
%MOMM*%
%LPD*%
G01*
G04 APERTURE LIST*
%ADD10C,0.100000*%
%ADD11C,5.400000*%
%ADD12R,1.400000X3.400000*%
%ADD13R,1.700000X1.100000*%
%ADD14R,1.960000X1.050000*%
%ADD15R,2.900000X2.900000*%
%ADD16C,2.900000*%
%ADD17R,1.850000X0.850000*%
%ADD18R,1.400000X1.650000*%
%ADD19R,1.650000X1.400000*%
%ADD20R,2.400000X2.100000*%
%ADD21R,1.400000X3.550000*%
%ADD22R,3.400000X3.400000*%
%ADD23C,3.400000*%
%ADD24R,2.100000X2.100000*%
%ADD25O,2.100000X2.100000*%
%ADD26R,3.550000X1.400000*%
%ADD27R,1.300000X1.200000*%
%ADD28R,2.600000X1.600000*%
%ADD29R,6.800000X6.200000*%
%ADD30R,1.200000X1.300000*%
%ADD31R,1.100000X1.700000*%
%ADD32R,1.400000X3.600000*%
%ADD33R,1.900000X1.000000*%
%ADD34R,1.900000X0.850000*%
%ADD35R,1.050000X1.960000*%
%ADD36R,2.400000X1.050000*%
%ADD37R,0.800000X1.500000*%
%ADD38R,0.700000X1.800000*%
%ADD39C,3.200000*%
%ADD40R,1.924000X1.924000*%
%ADD41C,1.924000*%
%ADD42R,3.575000X3.575000*%
%ADD43R,2.990800X3.575000*%
%ADD44C,2.198320*%
%ADD45C,2.195780*%
%ADD46R,3.600000X1.400000*%
%ADD47R,3.400000X1.400000*%
%ADD48R,2.900000X0.900000*%
%ADD49C,1.700000*%
%ADD50C,1.300000*%
G04 APERTURE END LIST*
D10*
D11*
X153352500Y-76200000D03*
D12*
X143510000Y-155595000D03*
X143510000Y-160635000D03*
X146050000Y-155595000D03*
X146050000Y-160635000D03*
X148590000Y-155595000D03*
X148590000Y-160635000D03*
X151130000Y-155595000D03*
X151130000Y-160635000D03*
X153670000Y-155595000D03*
X153670000Y-160635000D03*
X156210000Y-155595000D03*
X156210000Y-160635000D03*
X158750000Y-155595000D03*
X158750000Y-160635000D03*
X161290000Y-155595000D03*
X161290000Y-160635000D03*
X163830000Y-155595000D03*
X163830000Y-160635000D03*
D13*
X176530000Y-163510000D03*
X176530000Y-161610000D03*
D14*
X247730000Y-66355000D03*
X247730000Y-65405000D03*
X247730000Y-64455000D03*
X245030000Y-64455000D03*
X245030000Y-66355000D03*
D15*
X106680000Y-57150000D03*
D16*
X116200000Y-57150000D03*
D17*
X127225000Y-94865000D03*
X127225000Y-95515000D03*
X127225000Y-96165000D03*
X127225000Y-96815000D03*
X127225000Y-97465000D03*
X127225000Y-98115000D03*
X127225000Y-98765000D03*
X127225000Y-99415000D03*
X127225000Y-100065000D03*
X127225000Y-100715000D03*
X133125000Y-100715000D03*
X133125000Y-100065000D03*
X133125000Y-99415000D03*
X133125000Y-98765000D03*
X133125000Y-98115000D03*
X133125000Y-97465000D03*
X133125000Y-96815000D03*
X133125000Y-96165000D03*
X133125000Y-95515000D03*
X133125000Y-94865000D03*
D13*
X182372000Y-132146000D03*
X182372000Y-134046000D03*
D18*
X189500000Y-123444000D03*
X191500000Y-123444000D03*
D19*
X123190000Y-98060000D03*
X123190000Y-100060000D03*
X125095000Y-98060000D03*
X125095000Y-100060000D03*
D18*
X189500000Y-103124000D03*
X191500000Y-103124000D03*
D19*
X123190000Y-96250000D03*
X123190000Y-94250000D03*
X125095000Y-96250000D03*
X125095000Y-94250000D03*
X138430000Y-98060000D03*
X138430000Y-100060000D03*
D18*
X189500000Y-82804000D03*
X191500000Y-82804000D03*
D19*
X136525000Y-98060000D03*
X136525000Y-100060000D03*
X138430000Y-96250000D03*
X138430000Y-94250000D03*
X136525000Y-96250000D03*
X136525000Y-94250000D03*
D18*
X181864000Y-138684000D03*
X179864000Y-138684000D03*
X191516000Y-138176000D03*
X193516000Y-138176000D03*
D19*
X179070000Y-147050000D03*
X179070000Y-145050000D03*
X194310000Y-141970000D03*
X194310000Y-139970000D03*
X179070000Y-134890000D03*
X179070000Y-136890000D03*
X194310000Y-129810000D03*
X194310000Y-131810000D03*
D18*
X181864000Y-118364000D03*
X179864000Y-118364000D03*
X191516000Y-117856000D03*
X193516000Y-117856000D03*
D19*
X179070000Y-126730000D03*
X179070000Y-124730000D03*
X194310000Y-121650000D03*
X194310000Y-119650000D03*
X179070000Y-114570000D03*
X179070000Y-116570000D03*
X194310000Y-109490000D03*
X194310000Y-111490000D03*
D18*
X181848000Y-98044000D03*
X179848000Y-98044000D03*
X191532000Y-97536000D03*
X193532000Y-97536000D03*
D19*
X179070000Y-106410000D03*
X179070000Y-104410000D03*
X188595000Y-156575000D03*
X188595000Y-154575000D03*
X207645000Y-156575000D03*
X207645000Y-154575000D03*
X190500000Y-156575000D03*
X190500000Y-154575000D03*
X209550000Y-156575000D03*
X209550000Y-154575000D03*
X239555000Y-156575000D03*
X239555000Y-154575000D03*
X241460000Y-156575000D03*
X241460000Y-154575000D03*
X188214000Y-67961000D03*
X188214000Y-69961000D03*
X186182000Y-67961000D03*
X186182000Y-69961000D03*
X186182000Y-60309000D03*
X186182000Y-58309000D03*
X188214000Y-60309000D03*
X188214000Y-58309000D03*
D18*
X241030000Y-62230000D03*
X239030000Y-62230000D03*
X209820000Y-55118000D03*
X211820000Y-55118000D03*
X234712000Y-62230000D03*
X236712000Y-62230000D03*
X226425000Y-62230000D03*
X224425000Y-62230000D03*
X220107000Y-62230000D03*
X222107000Y-62230000D03*
D20*
X178530000Y-140970000D03*
X174530000Y-140970000D03*
X194850000Y-146050000D03*
X198850000Y-146050000D03*
X178530000Y-130810000D03*
X174530000Y-130810000D03*
X194850000Y-135890000D03*
X198850000Y-135890000D03*
X178530000Y-120650000D03*
X174530000Y-120650000D03*
X194850000Y-125730000D03*
X198850000Y-125730000D03*
X178530000Y-110490000D03*
X174530000Y-110490000D03*
X194850000Y-115570000D03*
X198850000Y-115570000D03*
X178530000Y-100330000D03*
X174530000Y-100330000D03*
X125635000Y-172720000D03*
X129635000Y-172720000D03*
X138335000Y-172720000D03*
X142335000Y-172720000D03*
X151035000Y-172720000D03*
X155035000Y-172720000D03*
X163735000Y-172720000D03*
X167735000Y-172720000D03*
X189135000Y-172720000D03*
X193135000Y-172720000D03*
X201835000Y-172720000D03*
X205835000Y-172720000D03*
X214535000Y-172720000D03*
X218535000Y-172720000D03*
X227235000Y-172720000D03*
X231235000Y-172720000D03*
X237395000Y-55880000D03*
X241395000Y-55880000D03*
X222790000Y-55880000D03*
X226790000Y-55880000D03*
D21*
X120650000Y-77455000D03*
X120650000Y-72405000D03*
X224790000Y-76723000D03*
X224790000Y-81773000D03*
X222250000Y-76723000D03*
X222250000Y-81773000D03*
X219710000Y-76723000D03*
X219710000Y-81773000D03*
X217170000Y-76723000D03*
X217170000Y-81773000D03*
X214630000Y-76723000D03*
X214630000Y-81773000D03*
X212090000Y-76723000D03*
X212090000Y-81773000D03*
X209550000Y-76723000D03*
X209550000Y-81773000D03*
X207010000Y-76723000D03*
X207010000Y-81773000D03*
X204470000Y-76723000D03*
X204470000Y-81773000D03*
X201930000Y-76723000D03*
X201930000Y-81773000D03*
X224790000Y-91455000D03*
X224790000Y-96505000D03*
X222250000Y-91455000D03*
X222250000Y-96505000D03*
X219710000Y-91455000D03*
X219710000Y-96505000D03*
X217170000Y-91455000D03*
X217170000Y-96505000D03*
X214630000Y-91455000D03*
X214630000Y-96505000D03*
X212090000Y-91455000D03*
X212090000Y-96505000D03*
X209550000Y-91455000D03*
X209550000Y-96505000D03*
X207010000Y-91455000D03*
X207010000Y-96505000D03*
X204470000Y-91455000D03*
X204470000Y-96505000D03*
X201930000Y-91455000D03*
X201930000Y-96505000D03*
D22*
X277815000Y-54220000D03*
D23*
X277815000Y-58420000D03*
X272315000Y-54220000D03*
X272315000Y-58420000D03*
X285115000Y-56320000D03*
D21*
X165735000Y-70470000D03*
X165735000Y-65420000D03*
X168275000Y-70470000D03*
X168275000Y-65420000D03*
X170815000Y-70470000D03*
X170815000Y-65420000D03*
X173355000Y-70470000D03*
X173355000Y-65420000D03*
D24*
X289560000Y-76200000D03*
D25*
X289560000Y-73660000D03*
X289560000Y-71120000D03*
X289560000Y-68580000D03*
X289560000Y-66040000D03*
X289560000Y-63500000D03*
D24*
X289560000Y-92710000D03*
D25*
X289560000Y-90170000D03*
X289560000Y-87630000D03*
X289560000Y-85090000D03*
X289560000Y-82550000D03*
X289560000Y-80010000D03*
D24*
X289560000Y-109220000D03*
D25*
X289560000Y-106680000D03*
X289560000Y-104140000D03*
X289560000Y-101600000D03*
X289560000Y-99060000D03*
X289560000Y-96520000D03*
D24*
X289560000Y-125730000D03*
D25*
X289560000Y-123190000D03*
X289560000Y-120650000D03*
X289560000Y-118110000D03*
X289560000Y-115570000D03*
X289560000Y-113030000D03*
D24*
X289560000Y-142240000D03*
D25*
X289560000Y-139700000D03*
X289560000Y-137160000D03*
X289560000Y-134620000D03*
X289560000Y-132080000D03*
X289560000Y-129540000D03*
D24*
X289560000Y-158750000D03*
D25*
X289560000Y-156210000D03*
X289560000Y-153670000D03*
X289560000Y-151130000D03*
X289560000Y-148590000D03*
X289560000Y-146050000D03*
D24*
X289560000Y-175260000D03*
D25*
X289560000Y-172720000D03*
X289560000Y-170180000D03*
X289560000Y-167640000D03*
X289560000Y-165100000D03*
X289560000Y-162560000D03*
D12*
X267335000Y-58400000D03*
X267335000Y-53360000D03*
X264795000Y-58400000D03*
X264795000Y-53360000D03*
X262255000Y-58400000D03*
X262255000Y-53360000D03*
X259715000Y-58400000D03*
X259715000Y-53360000D03*
X257175000Y-58400000D03*
X257175000Y-53360000D03*
X254635000Y-58400000D03*
X254635000Y-53360000D03*
X257810000Y-175240000D03*
X257810000Y-170200000D03*
X255270000Y-175240000D03*
X255270000Y-170200000D03*
X252730000Y-175240000D03*
X252730000Y-170200000D03*
X250190000Y-175240000D03*
X250190000Y-170200000D03*
X247650000Y-175240000D03*
X247650000Y-170200000D03*
X245110000Y-175240000D03*
X245110000Y-170200000D03*
D26*
X205090000Y-53975000D03*
X200040000Y-53975000D03*
D21*
X231648000Y-60310000D03*
X231648000Y-55260000D03*
X217043000Y-60310000D03*
X217043000Y-55260000D03*
D27*
X166100000Y-141920000D03*
X166100000Y-140020000D03*
X164100000Y-140970000D03*
X207280000Y-145100000D03*
X207280000Y-147000000D03*
X209280000Y-146050000D03*
D28*
X158700000Y-148330000D03*
X158700000Y-143770000D03*
D29*
X152400000Y-146050000D03*
D27*
X166100000Y-131760000D03*
X166100000Y-129860000D03*
X164100000Y-130810000D03*
X207280000Y-134940000D03*
X207280000Y-136840000D03*
X209280000Y-135890000D03*
D28*
X214680000Y-138690000D03*
X214680000Y-143250000D03*
D29*
X220980000Y-140970000D03*
D28*
X158700000Y-138170000D03*
X158700000Y-133610000D03*
D29*
X152400000Y-135890000D03*
D28*
X214680000Y-128530000D03*
X214680000Y-133090000D03*
D29*
X220980000Y-130810000D03*
D27*
X166100000Y-121600000D03*
X166100000Y-119700000D03*
X164100000Y-120650000D03*
X207280000Y-124780000D03*
X207280000Y-126680000D03*
X209280000Y-125730000D03*
D28*
X158700000Y-128010000D03*
X158700000Y-123450000D03*
D29*
X152400000Y-125730000D03*
D27*
X166100000Y-111440000D03*
X166100000Y-109540000D03*
X164100000Y-110490000D03*
X207280000Y-114620000D03*
X207280000Y-116520000D03*
X209280000Y-115570000D03*
D28*
X214680000Y-118370000D03*
X214680000Y-122930000D03*
D29*
X220980000Y-120650000D03*
D28*
X158700000Y-117850000D03*
X158700000Y-113290000D03*
D29*
X152400000Y-115570000D03*
D28*
X214680000Y-108210000D03*
X214680000Y-112770000D03*
D29*
X220980000Y-110490000D03*
D27*
X166100000Y-101280000D03*
X166100000Y-99380000D03*
X164100000Y-100330000D03*
D28*
X158700000Y-107690000D03*
X158700000Y-103130000D03*
D29*
X152400000Y-105410000D03*
D30*
X134935000Y-168545000D03*
X133035000Y-168545000D03*
X133985000Y-170545000D03*
X147635000Y-168545000D03*
X145735000Y-168545000D03*
X146685000Y-170545000D03*
X160335000Y-168545000D03*
X158435000Y-168545000D03*
X159385000Y-170545000D03*
X173035000Y-168545000D03*
X171135000Y-168545000D03*
X172085000Y-170545000D03*
X185735000Y-168545000D03*
X183835000Y-168545000D03*
X184785000Y-170545000D03*
X198435000Y-168545000D03*
X196535000Y-168545000D03*
X197485000Y-170545000D03*
X211135000Y-168545000D03*
X209235000Y-168545000D03*
X210185000Y-170545000D03*
X223835000Y-168545000D03*
X221935000Y-168545000D03*
X222885000Y-170545000D03*
X236535000Y-168545000D03*
X234635000Y-168545000D03*
X235585000Y-170545000D03*
D31*
X148270000Y-140970000D03*
X146370000Y-140970000D03*
X225110000Y-135890000D03*
X227010000Y-135890000D03*
X148270000Y-130810000D03*
X146370000Y-130810000D03*
X225110000Y-125730000D03*
X227010000Y-125730000D03*
X148270000Y-120650000D03*
X146370000Y-120650000D03*
X225110000Y-115570000D03*
X227010000Y-115570000D03*
X148270000Y-110490000D03*
X146370000Y-110490000D03*
D13*
X184658000Y-128844000D03*
X184658000Y-130744000D03*
X184658000Y-132146000D03*
X184658000Y-134046000D03*
D31*
X169230000Y-140970000D03*
X171130000Y-140970000D03*
X175580000Y-147320000D03*
X177480000Y-147320000D03*
X175580000Y-144780000D03*
X177480000Y-144780000D03*
X204150000Y-146050000D03*
X202250000Y-146050000D03*
D32*
X162000000Y-146050000D03*
X168200000Y-146050000D03*
D13*
X188722000Y-128844000D03*
X188722000Y-130744000D03*
X188722000Y-132146000D03*
X188722000Y-134046000D03*
D31*
X169230000Y-130810000D03*
X171130000Y-130810000D03*
X197800000Y-142240000D03*
X195900000Y-142240000D03*
X197800000Y-139700000D03*
X195900000Y-139700000D03*
X204150000Y-135890000D03*
X202250000Y-135890000D03*
D32*
X211380000Y-140970000D03*
X205180000Y-140970000D03*
D13*
X182372000Y-128844000D03*
X182372000Y-130744000D03*
D31*
X175580000Y-134620000D03*
X177480000Y-134620000D03*
X175580000Y-137160000D03*
X177480000Y-137160000D03*
D32*
X162000000Y-135890000D03*
X168200000Y-135890000D03*
D13*
X191008000Y-128844000D03*
X191008000Y-130744000D03*
D31*
X197800000Y-129540000D03*
X195900000Y-129540000D03*
X197800000Y-132080000D03*
X195900000Y-132080000D03*
D32*
X211380000Y-130810000D03*
X205180000Y-130810000D03*
D13*
X184658000Y-108524000D03*
X184658000Y-110424000D03*
X184658000Y-111826000D03*
X184658000Y-113726000D03*
D31*
X169230000Y-120650000D03*
X171130000Y-120650000D03*
X175580000Y-127000000D03*
X177480000Y-127000000D03*
X175580000Y-124460000D03*
X177480000Y-124460000D03*
X204150000Y-125730000D03*
X202250000Y-125730000D03*
D32*
X162000000Y-125730000D03*
X168200000Y-125730000D03*
D13*
X188722000Y-108524000D03*
X188722000Y-110424000D03*
X188722000Y-111826000D03*
X188722000Y-113726000D03*
D31*
X169230000Y-110490000D03*
X171130000Y-110490000D03*
X197800000Y-121920000D03*
X195900000Y-121920000D03*
X197800000Y-119380000D03*
X195900000Y-119380000D03*
X204150000Y-115570000D03*
X202250000Y-115570000D03*
D32*
X211380000Y-120650000D03*
X205180000Y-120650000D03*
D13*
X182372000Y-108524000D03*
X182372000Y-110424000D03*
X182372000Y-111826000D03*
X182372000Y-113726000D03*
D31*
X175580000Y-114300000D03*
X177480000Y-114300000D03*
X175580000Y-116840000D03*
X177480000Y-116840000D03*
D32*
X162000000Y-115570000D03*
X168200000Y-115570000D03*
D13*
X191008000Y-108524000D03*
X191008000Y-110424000D03*
X191008000Y-111826000D03*
X191008000Y-113726000D03*
D31*
X197800000Y-109220000D03*
X195900000Y-109220000D03*
X197800000Y-111760000D03*
X195900000Y-111760000D03*
D32*
X211380000Y-110490000D03*
X205180000Y-110490000D03*
D13*
X184658000Y-88204000D03*
X184658000Y-90104000D03*
X184658000Y-91506000D03*
X184658000Y-93406000D03*
D31*
X169230000Y-100330000D03*
X171130000Y-100330000D03*
X175580000Y-106680000D03*
X177480000Y-106680000D03*
X175580000Y-104140000D03*
X177480000Y-104140000D03*
D32*
X162000000Y-105410000D03*
X168200000Y-105410000D03*
D31*
X146365000Y-172720000D03*
X144465000Y-172720000D03*
X159065000Y-172720000D03*
X157165000Y-172720000D03*
D13*
X190500000Y-161610000D03*
X190500000Y-163510000D03*
X188595000Y-159070000D03*
X188595000Y-160970000D03*
X178435000Y-160970000D03*
X178435000Y-159070000D03*
X209550000Y-161610000D03*
X209550000Y-163510000D03*
X207645000Y-159070000D03*
X207645000Y-160970000D03*
X197485000Y-160970000D03*
X197485000Y-159070000D03*
X195580000Y-163510000D03*
X195580000Y-161610000D03*
D31*
X184465000Y-172720000D03*
X182565000Y-172720000D03*
D13*
X197485000Y-157160000D03*
X197485000Y-155260000D03*
D31*
X197165000Y-172720000D03*
X195265000Y-172720000D03*
X209865000Y-172720000D03*
X207965000Y-172720000D03*
D13*
X229235000Y-160970000D03*
X229235000Y-159070000D03*
X229235000Y-157160000D03*
X229235000Y-155260000D03*
D31*
X235265000Y-172720000D03*
X233365000Y-172720000D03*
X245430000Y-62230000D03*
X247330000Y-62230000D03*
X247330000Y-54610000D03*
X245430000Y-54610000D03*
X194376000Y-64389000D03*
X196276000Y-64389000D03*
D13*
X251460000Y-66355000D03*
X251460000Y-64455000D03*
X151130000Y-60645000D03*
X151130000Y-62545000D03*
X180340000Y-63820000D03*
X180340000Y-65720000D03*
X180340000Y-67630000D03*
X180340000Y-69530000D03*
X251460000Y-58735000D03*
X251460000Y-56835000D03*
D31*
X205420000Y-60960000D03*
X203520000Y-60960000D03*
X238445000Y-53340000D03*
X240345000Y-53340000D03*
X223840000Y-53340000D03*
X225740000Y-53340000D03*
X209230000Y-60833000D03*
X207330000Y-60833000D03*
D13*
X234696000Y-60005000D03*
X234696000Y-58105000D03*
X234696000Y-56830000D03*
X234696000Y-54930000D03*
X220091000Y-60005000D03*
X220091000Y-58105000D03*
X220091000Y-56830000D03*
X220091000Y-54930000D03*
D31*
X268285000Y-116840000D03*
X266385000Y-116840000D03*
D13*
X266700000Y-166690000D03*
X266700000Y-168590000D03*
X274320000Y-166690000D03*
X274320000Y-168590000D03*
D31*
X268285000Y-114935000D03*
X266385000Y-114935000D03*
D13*
X281940000Y-166690000D03*
X281940000Y-168590000D03*
D31*
X268285000Y-104775000D03*
X266385000Y-104775000D03*
D13*
X241935000Y-108900000D03*
X241935000Y-107000000D03*
X243840000Y-108900000D03*
X243840000Y-107000000D03*
X245745000Y-108900000D03*
X245745000Y-107000000D03*
X247650000Y-108900000D03*
X247650000Y-107000000D03*
X249555000Y-108900000D03*
X249555000Y-107000000D03*
X251460000Y-108900000D03*
X251460000Y-107000000D03*
X253365000Y-108900000D03*
X253365000Y-107000000D03*
X255270000Y-108900000D03*
X255270000Y-107000000D03*
X255270000Y-110810000D03*
X255270000Y-112710000D03*
X253365000Y-110810000D03*
X253365000Y-112710000D03*
X251460000Y-110810000D03*
X251460000Y-112710000D03*
X249555000Y-110810000D03*
X249555000Y-112710000D03*
X247650000Y-110810000D03*
X247650000Y-112710000D03*
X245745000Y-110810000D03*
X245745000Y-112710000D03*
X243840000Y-110810000D03*
X243840000Y-112710000D03*
X241935000Y-110810000D03*
X241935000Y-112710000D03*
D31*
X267650000Y-132080000D03*
X265750000Y-132080000D03*
D13*
X243840000Y-126045000D03*
X243840000Y-124145000D03*
X245745000Y-126045000D03*
X245745000Y-124145000D03*
X247650000Y-126045000D03*
X247650000Y-124145000D03*
X249555000Y-126045000D03*
X249555000Y-124145000D03*
X251460000Y-126045000D03*
X251460000Y-124145000D03*
X253365000Y-126045000D03*
X253365000Y-124145000D03*
X255270000Y-126045000D03*
X255270000Y-124145000D03*
X257175000Y-126045000D03*
X257175000Y-124145000D03*
X257175000Y-127955000D03*
X257175000Y-129855000D03*
X255270000Y-127955000D03*
X255270000Y-129855000D03*
X253365000Y-127955000D03*
X253365000Y-129855000D03*
X251460000Y-127955000D03*
X251460000Y-129855000D03*
X249555000Y-127955000D03*
X249555000Y-129855000D03*
X247650000Y-127955000D03*
X247650000Y-129855000D03*
X245745000Y-127955000D03*
X245745000Y-129855000D03*
X243840000Y-127955000D03*
X243840000Y-129855000D03*
D31*
X152080000Y-140970000D03*
X150180000Y-140970000D03*
X221300000Y-135890000D03*
X223200000Y-135890000D03*
X152080000Y-130810000D03*
X150180000Y-130810000D03*
X221300000Y-125730000D03*
X223200000Y-125730000D03*
X152080000Y-120650000D03*
X150180000Y-120650000D03*
X221300000Y-115570000D03*
X223200000Y-115570000D03*
X152080000Y-110490000D03*
X150180000Y-110490000D03*
D17*
X140560000Y-94865000D03*
X140560000Y-95515000D03*
X140560000Y-96165000D03*
X140560000Y-96815000D03*
X140560000Y-97465000D03*
X140560000Y-98115000D03*
X140560000Y-98765000D03*
X140560000Y-99415000D03*
X140560000Y-100065000D03*
X140560000Y-100715000D03*
X146460000Y-100715000D03*
X146460000Y-100065000D03*
X146460000Y-99415000D03*
X146460000Y-98765000D03*
X146460000Y-98115000D03*
X146460000Y-97465000D03*
X146460000Y-96815000D03*
X146460000Y-96165000D03*
X146460000Y-95515000D03*
X146460000Y-94865000D03*
X183740000Y-136480000D03*
X183740000Y-137130000D03*
X183740000Y-137780000D03*
X183740000Y-138430000D03*
X183740000Y-139080000D03*
X183740000Y-139730000D03*
X183740000Y-140380000D03*
X189640000Y-140380000D03*
X189640000Y-139730000D03*
X189640000Y-139080000D03*
X189640000Y-138430000D03*
X189640000Y-137780000D03*
X189640000Y-137130000D03*
X189640000Y-136480000D03*
X183740000Y-116160000D03*
X183740000Y-116810000D03*
X183740000Y-117460000D03*
X183740000Y-118110000D03*
X183740000Y-118760000D03*
X183740000Y-119410000D03*
X183740000Y-120060000D03*
X189640000Y-120060000D03*
X189640000Y-119410000D03*
X189640000Y-118760000D03*
X189640000Y-118110000D03*
X189640000Y-117460000D03*
X189640000Y-116810000D03*
X189640000Y-116160000D03*
X183740000Y-95840000D03*
X183740000Y-96490000D03*
X183740000Y-97140000D03*
X183740000Y-97790000D03*
X183740000Y-98440000D03*
X183740000Y-99090000D03*
X183740000Y-99740000D03*
X189640000Y-99740000D03*
X189640000Y-99090000D03*
X189640000Y-98440000D03*
X189640000Y-97790000D03*
X189640000Y-97140000D03*
X189640000Y-96490000D03*
X189640000Y-95840000D03*
D33*
X186215000Y-163195000D03*
X186215000Y-161925000D03*
X186215000Y-160655000D03*
X186215000Y-159385000D03*
X186215000Y-158115000D03*
X186215000Y-156845000D03*
X186215000Y-155575000D03*
X180815000Y-155575000D03*
X180815000Y-156845000D03*
X180815000Y-158115000D03*
X180815000Y-159385000D03*
X180815000Y-160655000D03*
X180815000Y-161925000D03*
X180815000Y-163195000D03*
X205265000Y-163195000D03*
X205265000Y-161925000D03*
X205265000Y-160655000D03*
X205265000Y-159385000D03*
X205265000Y-158115000D03*
X205265000Y-156845000D03*
X205265000Y-155575000D03*
X199865000Y-155575000D03*
X199865000Y-156845000D03*
X199865000Y-158115000D03*
X199865000Y-159385000D03*
X199865000Y-160655000D03*
X199865000Y-161925000D03*
X199865000Y-163195000D03*
X237015000Y-163195000D03*
X237015000Y-161925000D03*
X237015000Y-160655000D03*
X237015000Y-159385000D03*
X237015000Y-158115000D03*
X237015000Y-156845000D03*
X237015000Y-155575000D03*
X231615000Y-155575000D03*
X231615000Y-156845000D03*
X231615000Y-158115000D03*
X231615000Y-159385000D03*
X231615000Y-160655000D03*
X231615000Y-161925000D03*
X231615000Y-163195000D03*
D34*
X186280000Y-61860000D03*
X186280000Y-62510000D03*
X186280000Y-63160000D03*
X186280000Y-63810000D03*
X186280000Y-64460000D03*
X186280000Y-65110000D03*
X186280000Y-65760000D03*
X186280000Y-66410000D03*
X192180000Y-66410000D03*
X192180000Y-65760000D03*
X192180000Y-65110000D03*
X192180000Y-64460000D03*
X192180000Y-63810000D03*
X192180000Y-63160000D03*
X192180000Y-62510000D03*
X192180000Y-61860000D03*
D35*
X148270000Y-60245000D03*
X147320000Y-60245000D03*
X146370000Y-60245000D03*
X146370000Y-62945000D03*
X148270000Y-62945000D03*
D14*
X247730000Y-58735000D03*
X247730000Y-57785000D03*
X247730000Y-56835000D03*
X245030000Y-56835000D03*
X245030000Y-58735000D03*
D36*
X240470000Y-60005000D03*
X240470000Y-59055000D03*
X240470000Y-58105000D03*
X237050000Y-58105000D03*
X237050000Y-60005000D03*
X225865000Y-60005000D03*
X225865000Y-59055000D03*
X225865000Y-58105000D03*
X222445000Y-58105000D03*
X222445000Y-60005000D03*
D37*
X267100000Y-107005000D03*
X266450000Y-107005000D03*
X265800000Y-107005000D03*
X265150000Y-107005000D03*
X264500000Y-107005000D03*
X263850000Y-107005000D03*
X263200000Y-107005000D03*
X262550000Y-107005000D03*
X261900000Y-107005000D03*
X261250000Y-107005000D03*
X260600000Y-107005000D03*
X259950000Y-107005000D03*
X259950000Y-112705000D03*
X260600000Y-112705000D03*
X261250000Y-112705000D03*
X261900000Y-112705000D03*
X262550000Y-112705000D03*
X263200000Y-112705000D03*
X263850000Y-112705000D03*
X264500000Y-112705000D03*
X265150000Y-112705000D03*
X265800000Y-112705000D03*
X266450000Y-112705000D03*
X267100000Y-112705000D03*
X267100000Y-124150000D03*
X266450000Y-124150000D03*
X265800000Y-124150000D03*
X265150000Y-124150000D03*
X264500000Y-124150000D03*
X263850000Y-124150000D03*
X263200000Y-124150000D03*
X262550000Y-124150000D03*
X261900000Y-124150000D03*
X261250000Y-124150000D03*
X260600000Y-124150000D03*
X259950000Y-124150000D03*
X259950000Y-129850000D03*
X260600000Y-129850000D03*
X261250000Y-129850000D03*
X261900000Y-129850000D03*
X262550000Y-129850000D03*
X263200000Y-129850000D03*
X263850000Y-129850000D03*
X264500000Y-129850000D03*
X265150000Y-129850000D03*
X265800000Y-129850000D03*
X266450000Y-129850000D03*
X267100000Y-129850000D03*
D13*
X191008000Y-132146000D03*
X191008000Y-134046000D03*
D18*
X189500000Y-125476000D03*
X191500000Y-125476000D03*
X189500000Y-105156000D03*
X191500000Y-105156000D03*
X189500000Y-84836000D03*
X191500000Y-84836000D03*
D38*
X185690000Y-126660000D03*
X186190000Y-126660000D03*
X186690000Y-126660000D03*
X187190000Y-126660000D03*
X187690000Y-126660000D03*
X187690000Y-122260000D03*
X187190000Y-122260000D03*
X186690000Y-122260000D03*
X186190000Y-122260000D03*
X185690000Y-122260000D03*
X185690000Y-106340000D03*
X186190000Y-106340000D03*
X186690000Y-106340000D03*
X187190000Y-106340000D03*
X187690000Y-106340000D03*
X187690000Y-101940000D03*
X187190000Y-101940000D03*
X186690000Y-101940000D03*
X186190000Y-101940000D03*
X185690000Y-101940000D03*
X185690000Y-86020000D03*
X186190000Y-86020000D03*
X186690000Y-86020000D03*
X187190000Y-86020000D03*
X187690000Y-86020000D03*
X187690000Y-81620000D03*
X187190000Y-81620000D03*
X186690000Y-81620000D03*
X186190000Y-81620000D03*
X185690000Y-81620000D03*
D14*
X206930000Y-57023000D03*
X206930000Y-57973000D03*
X206930000Y-58923000D03*
X209630000Y-58923000D03*
X209630000Y-57023000D03*
D39*
X104140000Y-68580000D03*
X104140000Y-157480000D03*
D40*
X111760000Y-152400000D03*
D41*
X111760000Y-149860000D03*
X111760000Y-147320000D03*
X111760000Y-144780000D03*
X111760000Y-142240000D03*
X111760000Y-139700000D03*
X111760000Y-137160000D03*
X111760000Y-134620000D03*
X111760000Y-132080000D03*
D40*
X111760000Y-129540000D03*
D41*
X111760000Y-127000000D03*
X111760000Y-124460000D03*
X111760000Y-121920000D03*
X111760000Y-119380000D03*
X111760000Y-116840000D03*
X111760000Y-114300000D03*
X111760000Y-111760000D03*
X111760000Y-109220000D03*
X111760000Y-106680000D03*
D40*
X111760000Y-104140000D03*
D41*
X111760000Y-101600000D03*
X111760000Y-99060000D03*
X111760000Y-96520000D03*
X111760000Y-93980000D03*
X111760000Y-91440000D03*
X111760000Y-88900000D03*
X111760000Y-86360000D03*
X111760000Y-83820000D03*
X111760000Y-81280000D03*
D40*
X111760000Y-78740000D03*
D41*
X111760000Y-76200000D03*
X111760000Y-73660000D03*
D40*
X109220000Y-152400000D03*
D41*
X109220000Y-149860000D03*
X109220000Y-147320000D03*
X109220000Y-144780000D03*
X109220000Y-142240000D03*
X109220000Y-139700000D03*
X109220000Y-137160000D03*
X109220000Y-134620000D03*
X109220000Y-132080000D03*
D40*
X109220000Y-129540000D03*
D41*
X109220000Y-127000000D03*
X109220000Y-124460000D03*
X109220000Y-121920000D03*
X109220000Y-119380000D03*
X109220000Y-116840000D03*
X109220000Y-114300000D03*
X109220000Y-111760000D03*
X109220000Y-109220000D03*
X109220000Y-106680000D03*
D40*
X109220000Y-104140000D03*
D41*
X109220000Y-101600000D03*
X109220000Y-99060000D03*
X109220000Y-96520000D03*
X109220000Y-93980000D03*
X109220000Y-91440000D03*
X109220000Y-88900000D03*
X109220000Y-86360000D03*
X109220000Y-83820000D03*
X109220000Y-81280000D03*
D40*
X109220000Y-78740000D03*
D41*
X109220000Y-76200000D03*
X109220000Y-73660000D03*
D40*
X106680000Y-152400000D03*
D41*
X106680000Y-149860000D03*
X106680000Y-147320000D03*
X106680000Y-144780000D03*
X106680000Y-142240000D03*
X106680000Y-139700000D03*
X106680000Y-137160000D03*
X106680000Y-134620000D03*
X106680000Y-132080000D03*
D40*
X106680000Y-129540000D03*
D41*
X106680000Y-127000000D03*
X106680000Y-124460000D03*
X106680000Y-121920000D03*
X106680000Y-119380000D03*
X106680000Y-116840000D03*
X106680000Y-114300000D03*
X106680000Y-111760000D03*
X106680000Y-109220000D03*
X106680000Y-106680000D03*
D40*
X106680000Y-104140000D03*
D41*
X106680000Y-101600000D03*
X106680000Y-99060000D03*
X106680000Y-96520000D03*
X106680000Y-93980000D03*
X106680000Y-91440000D03*
X106680000Y-88900000D03*
X106680000Y-86360000D03*
X106680000Y-83820000D03*
X106680000Y-81280000D03*
D40*
X106680000Y-78740000D03*
D41*
X106680000Y-76200000D03*
X106680000Y-73660000D03*
D26*
X124460000Y-147320000D03*
X119410000Y-147320000D03*
X124460000Y-144780000D03*
X119410000Y-144780000D03*
X124460000Y-142240000D03*
X119410000Y-142240000D03*
X124460000Y-139700000D03*
X119410000Y-139700000D03*
X124460000Y-137160000D03*
X119410000Y-137160000D03*
X124460000Y-134620000D03*
X119410000Y-134620000D03*
X124460000Y-132080000D03*
X119410000Y-132080000D03*
X124460000Y-129540000D03*
X119410000Y-129540000D03*
X124460000Y-127000000D03*
X119410000Y-127000000D03*
X124460000Y-124460000D03*
X119410000Y-124460000D03*
X124460000Y-121920000D03*
X119410000Y-121920000D03*
X124460000Y-119380000D03*
X119410000Y-119380000D03*
X124460000Y-116840000D03*
X119410000Y-116840000D03*
X124460000Y-114300000D03*
X119410000Y-114300000D03*
X124460000Y-111760000D03*
X119410000Y-111760000D03*
X124460000Y-109220000D03*
X119410000Y-109220000D03*
X124460000Y-106680000D03*
X119410000Y-106680000D03*
X124460000Y-104140000D03*
X119410000Y-104140000D03*
D18*
X107585000Y-164465000D03*
X109585000Y-164465000D03*
D20*
X176435000Y-172720000D03*
X180435000Y-172720000D03*
D31*
X148275000Y-98425000D03*
X150175000Y-98425000D03*
D13*
X183642000Y-103190000D03*
X183642000Y-105090000D03*
X183642000Y-82870000D03*
X183642000Y-84770000D03*
D31*
X133665000Y-172720000D03*
X131765000Y-172720000D03*
X171765000Y-172720000D03*
X169865000Y-172720000D03*
X222565000Y-172720000D03*
X220665000Y-172720000D03*
X107630000Y-166370000D03*
X105730000Y-166370000D03*
D42*
X131610100Y-57150000D03*
D43*
X127635000Y-57150000D03*
D42*
X123659900Y-57150000D03*
D44*
X107950000Y-171450000D03*
D45*
X110490000Y-168910000D03*
X105410000Y-168910000D03*
X105410000Y-173990000D03*
X110490000Y-173990000D03*
D46*
X131445000Y-60400000D03*
X131445000Y-66600000D03*
D11*
X220027500Y-152400000D03*
D47*
X265660000Y-171450000D03*
X262660000Y-173990000D03*
X262660000Y-168910000D03*
X273280000Y-171450000D03*
X270280000Y-173990000D03*
X270280000Y-168910000D03*
X280900000Y-171450000D03*
X277900000Y-173990000D03*
X277900000Y-168910000D03*
D48*
X281906350Y-93430000D03*
D49*
X279406350Y-135130000D03*
D50*
X279406350Y-90930000D03*
D49*
X234956350Y-135130000D03*
D50*
X234956350Y-90930000D03*
D48*
X237456350Y-93430000D03*
X232456350Y-93430000D03*
X237456350Y-94230000D03*
X232456350Y-94230000D03*
X237456350Y-95030000D03*
X232456350Y-95030000D03*
X237456350Y-95830000D03*
X232456350Y-95830000D03*
X237456350Y-96630000D03*
X232456350Y-96630000D03*
X237456350Y-97430000D03*
X232456350Y-97430000D03*
X237456350Y-98230000D03*
X232456350Y-98230000D03*
X237456350Y-99030000D03*
X232456350Y-99030000D03*
X237456350Y-99830000D03*
X232456350Y-99830000D03*
X237456350Y-100630000D03*
X232456350Y-100630000D03*
X237456350Y-101430000D03*
X232456350Y-101430000D03*
X237456350Y-102230000D03*
X232456350Y-102230000D03*
X237456350Y-103030000D03*
X232456350Y-103030000D03*
X237456350Y-103830000D03*
X232456350Y-103830000D03*
X237456350Y-104630000D03*
X232456350Y-104630000D03*
X237456350Y-105430000D03*
X232456350Y-105430000D03*
X237456350Y-106230000D03*
X232456350Y-106230000D03*
X237456350Y-107030000D03*
X232456350Y-107030000D03*
X237456350Y-107830000D03*
X232456350Y-107830000D03*
X237456350Y-108630000D03*
X232456350Y-108630000D03*
X237456350Y-109430000D03*
X232456350Y-109430000D03*
X237456350Y-110230000D03*
X232456350Y-110230000D03*
X237456350Y-111030000D03*
X232456350Y-111030000D03*
X237456350Y-111830000D03*
X232456350Y-111830000D03*
X237456350Y-112630000D03*
X232456350Y-112630000D03*
X237456350Y-113430000D03*
X232456350Y-113430000D03*
X237456350Y-114230000D03*
X232456350Y-114230000D03*
X237456350Y-115030000D03*
X232456350Y-115030000D03*
X237456350Y-115830000D03*
X232456350Y-115830000D03*
X237456350Y-116630000D03*
X232456350Y-116630000D03*
X237456350Y-117430000D03*
X232456350Y-117430000D03*
X237456350Y-118230000D03*
X232456350Y-118230000D03*
X237456350Y-119030000D03*
X232456350Y-119030000D03*
X237456350Y-119830000D03*
X232456350Y-119830000D03*
X237456350Y-120630000D03*
X232456350Y-120630000D03*
X237456350Y-121430000D03*
X232456350Y-121430000D03*
X237456350Y-122230000D03*
X232456350Y-122230000D03*
X237456350Y-123030000D03*
X232456350Y-123030000D03*
X237456350Y-123830000D03*
X232456350Y-123830000D03*
X237456350Y-124630000D03*
X232456350Y-124630000D03*
X237456350Y-125430000D03*
X232456350Y-125430000D03*
X237456350Y-126230000D03*
X232456350Y-126230000D03*
X237456350Y-127030000D03*
X232456350Y-127030000D03*
X237456350Y-127830000D03*
X232456350Y-127830000D03*
X237456350Y-128630000D03*
X232456350Y-128630000D03*
X237456350Y-129430000D03*
X232456350Y-129430000D03*
X237456350Y-130230000D03*
X232456350Y-130230000D03*
X237456350Y-131030000D03*
X232456350Y-131030000D03*
X237456350Y-131830000D03*
X232456350Y-131830000D03*
X237456350Y-132630000D03*
X232456350Y-132630000D03*
X276906350Y-93430000D03*
X281906350Y-94230000D03*
X276906350Y-94230000D03*
X281906350Y-95030000D03*
X276906350Y-95030000D03*
X281906350Y-95830000D03*
X276906350Y-95830000D03*
X281906350Y-96630000D03*
X276906350Y-96630000D03*
X281906350Y-97430000D03*
X276906350Y-97430000D03*
X281906350Y-98230000D03*
X276906350Y-98230000D03*
X281906350Y-99030000D03*
X276906350Y-99030000D03*
X281906350Y-99830000D03*
X276906350Y-99830000D03*
X281906350Y-100630000D03*
X276906350Y-100630000D03*
X281906350Y-101430000D03*
X276906350Y-101430000D03*
X281906350Y-102230000D03*
X276906350Y-102230000D03*
X281906350Y-103030000D03*
X276906350Y-103030000D03*
X281906350Y-103830000D03*
X276906350Y-103830000D03*
X281906350Y-104630000D03*
X276906350Y-104630000D03*
X281906350Y-105430000D03*
X276906350Y-105430000D03*
X281906350Y-106230000D03*
X276906350Y-106230000D03*
X281906350Y-107030000D03*
X276906350Y-107030000D03*
X281906350Y-107830000D03*
X276906350Y-107830000D03*
X281906350Y-108630000D03*
X276906350Y-108630000D03*
X281906350Y-109430000D03*
X276906350Y-109430000D03*
X281906350Y-110230000D03*
X276906350Y-110230000D03*
X281906350Y-111030000D03*
X276906350Y-111030000D03*
X281906350Y-111830000D03*
X276906350Y-111830000D03*
X281906350Y-112630000D03*
X276906350Y-112630000D03*
X281906350Y-113430000D03*
X276906350Y-113430000D03*
X281906350Y-114230000D03*
X276906350Y-114230000D03*
X281906350Y-115030000D03*
X276906350Y-115030000D03*
X281906350Y-115830000D03*
X276906350Y-115830000D03*
X281906350Y-116630000D03*
X276906350Y-116630000D03*
X281906350Y-117430000D03*
X276906350Y-117430000D03*
X281906350Y-118230000D03*
X276906350Y-118230000D03*
X281906350Y-119030000D03*
X276906350Y-119030000D03*
X281906350Y-119830000D03*
X276906350Y-119830000D03*
X281906350Y-120630000D03*
X276906350Y-120630000D03*
X281906350Y-121430000D03*
X276906350Y-121430000D03*
X281906350Y-122230000D03*
X276906350Y-122230000D03*
X281906350Y-123030000D03*
X276906350Y-123030000D03*
X281906350Y-123830000D03*
X276906350Y-123830000D03*
X281906350Y-124630000D03*
X276906350Y-124630000D03*
X281906350Y-125430000D03*
X276906350Y-125430000D03*
X281906350Y-126230000D03*
X276906350Y-126230000D03*
X281906350Y-127030000D03*
X276906350Y-127030000D03*
X281906350Y-127830000D03*
X276906350Y-127830000D03*
X281906350Y-128630000D03*
X276906350Y-128630000D03*
X281906350Y-129430000D03*
X276906350Y-129430000D03*
X281906350Y-130230000D03*
X276906350Y-130230000D03*
X281906350Y-131030000D03*
X276906350Y-131030000D03*
X281906350Y-131830000D03*
X276906350Y-131830000D03*
X281906350Y-132630000D03*
X276906350Y-132630000D03*
M02*
