G04 #@! TF.FileFunction,Drawing*
%FSLAX46Y46*%
G04 Gerber Fmt 4.6, Leading zero omitted, Abs format (unit mm)*
G04 Created by KiCad (PCBNEW 4.0.6) date Fri Aug  3 14:49:23 2018*
%MOMM*%
%LPD*%
G01*
G04 APERTURE LIST*
%ADD10C,0.100000*%
%ADD11C,0.304800*%
%ADD12C,0.254000*%
G04 APERTURE END LIST*
D10*
D11*
X105337429Y-167338829D02*
X104611715Y-167338829D01*
X104611715Y-165814829D01*
X105845429Y-166540543D02*
X106353429Y-166540543D01*
X106571143Y-167338829D02*
X105845429Y-167338829D01*
X105845429Y-165814829D01*
X106571143Y-165814829D01*
X107224286Y-167338829D02*
X107224286Y-165814829D01*
X107732286Y-166903400D01*
X108240286Y-165814829D01*
X108240286Y-167338829D01*
X109256286Y-165814829D02*
X109546572Y-165814829D01*
X109691714Y-165887400D01*
X109836857Y-166032543D01*
X109909429Y-166322829D01*
X109909429Y-166830829D01*
X109836857Y-167121114D01*
X109691714Y-167266257D01*
X109546572Y-167338829D01*
X109256286Y-167338829D01*
X109111143Y-167266257D01*
X108966000Y-167121114D01*
X108893429Y-166830829D01*
X108893429Y-166322829D01*
X108966000Y-166032543D01*
X109111143Y-165887400D01*
X109256286Y-165814829D01*
X110490000Y-165959971D02*
X110562571Y-165887400D01*
X110707714Y-165814829D01*
X111070571Y-165814829D01*
X111215714Y-165887400D01*
X111288285Y-165959971D01*
X111360857Y-166105114D01*
X111360857Y-166250257D01*
X111288285Y-166467971D01*
X110417428Y-167338829D01*
X111360857Y-167338829D01*
D12*
G36*
X231013000Y-177673000D02*
X142367000Y-177673000D01*
X142367000Y-50927000D01*
X231013000Y-50927000D01*
X231013000Y-177673000D01*
X231013000Y-177673000D01*
G37*
X231013000Y-177673000D02*
X142367000Y-177673000D01*
X142367000Y-50927000D01*
X231013000Y-50927000D01*
X231013000Y-177673000D01*
M02*
