G04 #@! TF.FileFunction,Copper,L2,Inr,Signal*
%FSLAX46Y46*%
G04 Gerber Fmt 4.6, Leading zero omitted, Abs format (unit mm)*
G04 Created by KiCad (PCBNEW 4.0.6) date Fri Aug  3 14:49:23 2018*
%MOMM*%
%LPD*%
G01*
G04 APERTURE LIST*
%ADD10C,0.100000*%
%ADD11C,0.800000*%
%ADD12C,1.200000*%
%ADD13R,2.500000X2.500000*%
%ADD14C,2.500000*%
%ADD15R,3.000000X3.000000*%
%ADD16C,3.000000*%
%ADD17R,1.700000X1.700000*%
%ADD18O,1.700000X1.700000*%
%ADD19C,2.800000*%
%ADD20R,1.524000X1.524000*%
%ADD21C,1.524000*%
%ADD22C,1.798320*%
%ADD23C,1.795780*%
%ADD24C,0.600000*%
%ADD25C,0.250000*%
G04 APERTURE END LIST*
D10*
D11*
X279406350Y-135130000D03*
D12*
X279406350Y-90930000D03*
D11*
X234956350Y-135130000D03*
D12*
X234956350Y-90930000D03*
D13*
X106680000Y-57150000D03*
D14*
X116200000Y-57150000D03*
D15*
X277815000Y-54220000D03*
D16*
X277815000Y-58420000D03*
X272315000Y-54220000D03*
X272315000Y-58420000D03*
D17*
X289560000Y-76200000D03*
D18*
X289560000Y-73660000D03*
X289560000Y-71120000D03*
X289560000Y-68580000D03*
X289560000Y-66040000D03*
X289560000Y-63500000D03*
D17*
X289560000Y-92710000D03*
D18*
X289560000Y-90170000D03*
X289560000Y-87630000D03*
X289560000Y-85090000D03*
X289560000Y-82550000D03*
X289560000Y-80010000D03*
D17*
X289560000Y-109220000D03*
D18*
X289560000Y-106680000D03*
X289560000Y-104140000D03*
X289560000Y-101600000D03*
X289560000Y-99060000D03*
X289560000Y-96520000D03*
D17*
X289560000Y-125730000D03*
D18*
X289560000Y-123190000D03*
X289560000Y-120650000D03*
X289560000Y-118110000D03*
X289560000Y-115570000D03*
X289560000Y-113030000D03*
D17*
X289560000Y-142240000D03*
D18*
X289560000Y-139700000D03*
X289560000Y-137160000D03*
X289560000Y-134620000D03*
X289560000Y-132080000D03*
X289560000Y-129540000D03*
D17*
X289560000Y-158750000D03*
D18*
X289560000Y-156210000D03*
X289560000Y-153670000D03*
X289560000Y-151130000D03*
X289560000Y-148590000D03*
X289560000Y-146050000D03*
D17*
X289560000Y-175260000D03*
D18*
X289560000Y-172720000D03*
X289560000Y-170180000D03*
X289560000Y-167640000D03*
X289560000Y-165100000D03*
X289560000Y-162560000D03*
D19*
X104140000Y-68580000D03*
X104140000Y-157480000D03*
D20*
X111760000Y-152400000D03*
D21*
X111760000Y-149860000D03*
X111760000Y-147320000D03*
X111760000Y-144780000D03*
X111760000Y-142240000D03*
X111760000Y-139700000D03*
X111760000Y-137160000D03*
X111760000Y-134620000D03*
X111760000Y-132080000D03*
D20*
X111760000Y-129540000D03*
D21*
X111760000Y-127000000D03*
X111760000Y-124460000D03*
X111760000Y-121920000D03*
X111760000Y-119380000D03*
X111760000Y-116840000D03*
X111760000Y-114300000D03*
X111760000Y-111760000D03*
X111760000Y-109220000D03*
X111760000Y-106680000D03*
D20*
X111760000Y-104140000D03*
D21*
X111760000Y-101600000D03*
X111760000Y-99060000D03*
X111760000Y-96520000D03*
X111760000Y-93980000D03*
X111760000Y-91440000D03*
X111760000Y-88900000D03*
X111760000Y-86360000D03*
X111760000Y-83820000D03*
X111760000Y-81280000D03*
D20*
X111760000Y-78740000D03*
D21*
X111760000Y-76200000D03*
X111760000Y-73660000D03*
D20*
X109220000Y-152400000D03*
D21*
X109220000Y-149860000D03*
X109220000Y-147320000D03*
X109220000Y-144780000D03*
X109220000Y-142240000D03*
X109220000Y-139700000D03*
X109220000Y-137160000D03*
X109220000Y-134620000D03*
X109220000Y-132080000D03*
D20*
X109220000Y-129540000D03*
D21*
X109220000Y-127000000D03*
X109220000Y-124460000D03*
X109220000Y-121920000D03*
X109220000Y-119380000D03*
X109220000Y-116840000D03*
X109220000Y-114300000D03*
X109220000Y-111760000D03*
X109220000Y-109220000D03*
X109220000Y-106680000D03*
D20*
X109220000Y-104140000D03*
D21*
X109220000Y-101600000D03*
X109220000Y-99060000D03*
X109220000Y-96520000D03*
X109220000Y-93980000D03*
X109220000Y-91440000D03*
X109220000Y-88900000D03*
X109220000Y-86360000D03*
X109220000Y-83820000D03*
X109220000Y-81280000D03*
D20*
X109220000Y-78740000D03*
D21*
X109220000Y-76200000D03*
X109220000Y-73660000D03*
D20*
X106680000Y-152400000D03*
D21*
X106680000Y-149860000D03*
X106680000Y-147320000D03*
X106680000Y-144780000D03*
X106680000Y-142240000D03*
X106680000Y-139700000D03*
X106680000Y-137160000D03*
X106680000Y-134620000D03*
X106680000Y-132080000D03*
D20*
X106680000Y-129540000D03*
D21*
X106680000Y-127000000D03*
X106680000Y-124460000D03*
X106680000Y-121920000D03*
X106680000Y-119380000D03*
X106680000Y-116840000D03*
X106680000Y-114300000D03*
X106680000Y-111760000D03*
X106680000Y-109220000D03*
X106680000Y-106680000D03*
D20*
X106680000Y-104140000D03*
D21*
X106680000Y-101600000D03*
X106680000Y-99060000D03*
X106680000Y-96520000D03*
X106680000Y-93980000D03*
X106680000Y-91440000D03*
X106680000Y-88900000D03*
X106680000Y-86360000D03*
X106680000Y-83820000D03*
X106680000Y-81280000D03*
D20*
X106680000Y-78740000D03*
D21*
X106680000Y-76200000D03*
X106680000Y-73660000D03*
D22*
X107950000Y-171450000D03*
D23*
X110490000Y-168910000D03*
X105410000Y-168910000D03*
X105410000Y-173990000D03*
X110490000Y-173990000D03*
D24*
X189230000Y-102235000D03*
X186055000Y-100330000D03*
X257810000Y-170200000D03*
X255270000Y-170200000D03*
X252730000Y-170200000D03*
X250190000Y-170200000D03*
X245110000Y-170200000D03*
X234635000Y-168545000D03*
X221935000Y-168545000D03*
X209235000Y-168545000D03*
X196535000Y-168545000D03*
X183835000Y-168545000D03*
X171135000Y-168545000D03*
X158435000Y-168545000D03*
X145735000Y-168545000D03*
X133035000Y-168545000D03*
X232456350Y-108630000D03*
X232456350Y-111030000D03*
X232456350Y-113430000D03*
X237456350Y-106230000D03*
X237456350Y-108630000D03*
X237456350Y-103830000D03*
X232456350Y-106230000D03*
X232456350Y-103830000D03*
X232456350Y-99030000D03*
X232456350Y-101430000D03*
X149860000Y-160655000D03*
X163830000Y-153035000D03*
X161290000Y-154305000D03*
X158750000Y-155575000D03*
X156210000Y-156845000D03*
X154940000Y-158115000D03*
X152400000Y-159385000D03*
X147320000Y-161925000D03*
X144780000Y-163195000D03*
X212090000Y-154305000D03*
X213360000Y-155575000D03*
X197485000Y-158115000D03*
X194945000Y-156845000D03*
X189865000Y-159385000D03*
X173355000Y-163195000D03*
X237456350Y-101430000D03*
X237456350Y-99030000D03*
X237456350Y-111030000D03*
X237456350Y-113430000D03*
X281906350Y-123830000D03*
X127000000Y-93345000D03*
X140335000Y-93345000D03*
X146304000Y-149352000D03*
X272288000Y-102108000D03*
X284480000Y-102870000D03*
X283845000Y-106680000D03*
X281906350Y-101430000D03*
X276906350Y-101430000D03*
X276906350Y-99030000D03*
X281906350Y-99030000D03*
X236220000Y-123825000D03*
X234950000Y-127030000D03*
X234950000Y-129430000D03*
X278765000Y-106680000D03*
X186690000Y-124460000D03*
X279400000Y-111030000D03*
X279400000Y-108630000D03*
X279400000Y-113030000D03*
X279400000Y-121430000D03*
X279400000Y-119030000D03*
X279400000Y-131030000D03*
X279400000Y-127030000D03*
X180340000Y-127635000D03*
X176530000Y-144780000D03*
X194945000Y-137795000D03*
X194945000Y-134620000D03*
X194945000Y-124460000D03*
X191500000Y-124460000D03*
X194945000Y-117475000D03*
X194945000Y-114300000D03*
X185420000Y-101600000D03*
X179705000Y-97155000D03*
X185420000Y-80010000D03*
X186788480Y-87152133D03*
X191516000Y-83820000D03*
X191500000Y-104140000D03*
X194564000Y-97536000D03*
X125095000Y-100965000D03*
X133350000Y-93980000D03*
X131445000Y-97790000D03*
X128905000Y-97155000D03*
X146685000Y-93980000D03*
X142240000Y-97155000D03*
X144780000Y-97790000D03*
X198755000Y-158115000D03*
X206375000Y-158115000D03*
X138430000Y-100965000D03*
X259715000Y-125095000D03*
X267970000Y-123825000D03*
X239030000Y-59245000D03*
X219075000Y-54610000D03*
X147320000Y-59055000D03*
X152400000Y-62865000D03*
X172085000Y-65420000D03*
X169545000Y-65420000D03*
X167005000Y-65420000D03*
X212725000Y-55245000D03*
X250180010Y-64770000D03*
X205900000Y-57973000D03*
X187325000Y-69961000D03*
X187960000Y-61860000D03*
X187325000Y-58309000D03*
X200025000Y-55245000D03*
X184785000Y-93980000D03*
X191135000Y-134620000D03*
X188595000Y-134620000D03*
X184785000Y-134620000D03*
X182245000Y-134620000D03*
X191135000Y-114300000D03*
X188595000Y-114300000D03*
X182245000Y-114300000D03*
X184785000Y-114300000D03*
X194945000Y-147320000D03*
X216535000Y-136525000D03*
X216535000Y-126365000D03*
X216535000Y-116205000D03*
X259080000Y-107315000D03*
X249555000Y-57785000D03*
X203708000Y-112268000D03*
X203708000Y-122428000D03*
X203708000Y-132588000D03*
X202565000Y-112268000D03*
X202565000Y-122428000D03*
X202565000Y-132588000D03*
X201422000Y-112268000D03*
X201422000Y-122428000D03*
X201422000Y-132588000D03*
X201422000Y-111252000D03*
X201422000Y-121412000D03*
X201422000Y-131572000D03*
X202565000Y-111252000D03*
X202565000Y-121412000D03*
X202565000Y-131572000D03*
X203708000Y-111252000D03*
X203708000Y-121412000D03*
X203708000Y-131572000D03*
X203708000Y-142748000D03*
X202565000Y-142748000D03*
X201422000Y-142748000D03*
X201422000Y-141732000D03*
X202565000Y-141732000D03*
X203708000Y-141732000D03*
X171958000Y-106172000D03*
X171958000Y-107188000D03*
X170815000Y-107188000D03*
X170815000Y-106172000D03*
X169672000Y-107188000D03*
X169672000Y-106172000D03*
X171958000Y-116332000D03*
X171958000Y-126492000D03*
X171958000Y-136652000D03*
X169672000Y-117348000D03*
X169672000Y-127508000D03*
X169672000Y-137668000D03*
X170815000Y-117348000D03*
X170815000Y-127508000D03*
X170815000Y-137668000D03*
X171958000Y-117348000D03*
X171958000Y-127508000D03*
X171958000Y-137668000D03*
X170815000Y-116332000D03*
X170815000Y-126492000D03*
X170815000Y-136652000D03*
X169672000Y-116332000D03*
X169672000Y-126492000D03*
X169672000Y-136652000D03*
X171958000Y-147828000D03*
X171958000Y-146812000D03*
X170815000Y-146812000D03*
X169672000Y-146812000D03*
X170815000Y-147828000D03*
X169672000Y-147828000D03*
X192405000Y-160655000D03*
X174625000Y-161925000D03*
X227965000Y-153035000D03*
X176784000Y-99060000D03*
X201930000Y-70485000D03*
X148590000Y-64135000D03*
X245110000Y-90805000D03*
X234950000Y-92710000D03*
X245110000Y-70485000D03*
X241935000Y-62230000D03*
X201930000Y-57150000D03*
X227330000Y-62230000D03*
X211455000Y-57150000D03*
X243384000Y-64455000D03*
X125635000Y-172720000D03*
X227235000Y-172720000D03*
X214535000Y-172720000D03*
X201835000Y-172720000D03*
X189135000Y-172720000D03*
X176435000Y-172720000D03*
X163735000Y-172720000D03*
X151035000Y-172720000D03*
X138335000Y-172720000D03*
X196596000Y-96520000D03*
X202565000Y-69850000D03*
X245030000Y-55880000D03*
X202565000Y-55880000D03*
X275336000Y-76835000D03*
X225425000Y-76835000D03*
X276352000Y-76200000D03*
X226060000Y-76200000D03*
X270256000Y-77470000D03*
X223520000Y-77470000D03*
X277368000Y-79375000D03*
X219075000Y-78105000D03*
X278384000Y-78740000D03*
X220980000Y-78740000D03*
X268224000Y-80010000D03*
X217805000Y-80010000D03*
X267208000Y-83185000D03*
X211455000Y-78105000D03*
X274320000Y-83820000D03*
X209550000Y-83820000D03*
X265176000Y-85725000D03*
X206375000Y-78105000D03*
X264160000Y-85090000D03*
X207010000Y-83820000D03*
X273304000Y-86995000D03*
X203835000Y-78105000D03*
X272288000Y-86360000D03*
X204470000Y-83820000D03*
X263144000Y-88265000D03*
X201295000Y-78105000D03*
X219710000Y-91455000D03*
X237456350Y-102230000D03*
X219710000Y-96505000D03*
X237456350Y-103030000D03*
X214630000Y-91455000D03*
X237456350Y-104630000D03*
X237456350Y-109430000D03*
X205678000Y-101600000D03*
X237456350Y-110230000D03*
X204470000Y-101600000D03*
X151130000Y-104775000D03*
X151130000Y-104140000D03*
X150495000Y-104775000D03*
X149860000Y-104775000D03*
X154940000Y-103505000D03*
X154940000Y-104775000D03*
X154305000Y-103505000D03*
X154305000Y-104775000D03*
X154305000Y-104140000D03*
X154940000Y-104140000D03*
X153670000Y-104775000D03*
X152400000Y-103505000D03*
X151765000Y-104140000D03*
X152400000Y-104140000D03*
X152400000Y-104775000D03*
X151765000Y-104775000D03*
X151765000Y-103505000D03*
X153670000Y-103505000D03*
X153670000Y-104140000D03*
X153035000Y-103505000D03*
X153035000Y-104140000D03*
X153035000Y-104775000D03*
X151130000Y-103505000D03*
X149860000Y-103505000D03*
X149860000Y-104140000D03*
X150495000Y-104140000D03*
X150495000Y-103505000D03*
X218440000Y-109855000D03*
X218440000Y-108585000D03*
X219075000Y-108585000D03*
X219075000Y-109220000D03*
X219075000Y-109855000D03*
X218440000Y-109220000D03*
X219710000Y-109855000D03*
X219710000Y-108585000D03*
X219710000Y-109220000D03*
X220345000Y-109855000D03*
X220345000Y-109220000D03*
X220345000Y-108585000D03*
X220980000Y-109855000D03*
X221615000Y-109855000D03*
X221615000Y-108585000D03*
X220980000Y-108585000D03*
X221615000Y-109220000D03*
X220980000Y-109220000D03*
X222250000Y-108585000D03*
X222250000Y-109855000D03*
X223520000Y-109855000D03*
X223520000Y-109220000D03*
X222885000Y-109220000D03*
X222250000Y-109220000D03*
X222885000Y-108585000D03*
X223520000Y-108585000D03*
X222885000Y-109855000D03*
X151130000Y-114935000D03*
X151130000Y-114300000D03*
X150495000Y-114935000D03*
X149860000Y-114935000D03*
X154940000Y-113665000D03*
X154940000Y-114935000D03*
X154305000Y-113665000D03*
X154305000Y-114935000D03*
X154305000Y-114300000D03*
X154940000Y-114300000D03*
X153670000Y-114935000D03*
X152400000Y-113665000D03*
X151765000Y-114300000D03*
X152400000Y-114300000D03*
X152400000Y-114935000D03*
X151765000Y-114935000D03*
X151765000Y-113665000D03*
X153670000Y-113665000D03*
X153670000Y-114300000D03*
X153035000Y-113665000D03*
X153035000Y-114300000D03*
X153035000Y-114935000D03*
X151130000Y-113665000D03*
X149860000Y-113665000D03*
X149860000Y-114300000D03*
X150495000Y-114300000D03*
X150495000Y-113665000D03*
X218440000Y-120015000D03*
X218440000Y-118745000D03*
X219075000Y-118745000D03*
X219075000Y-119380000D03*
X219075000Y-120015000D03*
X218440000Y-119380000D03*
X219710000Y-120015000D03*
X219710000Y-118745000D03*
X219710000Y-119380000D03*
X220345000Y-120015000D03*
X220345000Y-119380000D03*
X220345000Y-118745000D03*
X220980000Y-120015000D03*
X221615000Y-120015000D03*
X221615000Y-118745000D03*
X220980000Y-118745000D03*
X221615000Y-119380000D03*
X220980000Y-119380000D03*
X222250000Y-118745000D03*
X222250000Y-120015000D03*
X223520000Y-120015000D03*
X223520000Y-119380000D03*
X222885000Y-119380000D03*
X222250000Y-119380000D03*
X222885000Y-118745000D03*
X223520000Y-118745000D03*
X222885000Y-120015000D03*
X151130000Y-125095000D03*
X151130000Y-124460000D03*
X150495000Y-125095000D03*
X149860000Y-125095000D03*
X154940000Y-123825000D03*
X154940000Y-125095000D03*
X154305000Y-123825000D03*
X154305000Y-125095000D03*
X154305000Y-124460000D03*
X154940000Y-124460000D03*
X153670000Y-125095000D03*
X152400000Y-123825000D03*
X151765000Y-124460000D03*
X152400000Y-124460000D03*
X152400000Y-125095000D03*
X151765000Y-125095000D03*
X151765000Y-123825000D03*
X153670000Y-123825000D03*
X153670000Y-124460000D03*
X153035000Y-123825000D03*
X153035000Y-124460000D03*
X153035000Y-125095000D03*
X151130000Y-123825000D03*
X149860000Y-123825000D03*
X149860000Y-124460000D03*
X150495000Y-124460000D03*
X150495000Y-123825000D03*
X218440000Y-130175000D03*
X218440000Y-128905000D03*
X219075000Y-128905000D03*
X219075000Y-129540000D03*
X219075000Y-130175000D03*
X218440000Y-129540000D03*
X219710000Y-130175000D03*
X219710000Y-128905000D03*
X219710000Y-129540000D03*
X220345000Y-130175000D03*
X220345000Y-129540000D03*
X220345000Y-128905000D03*
X220980000Y-130175000D03*
X221615000Y-130175000D03*
X221615000Y-128905000D03*
X220980000Y-128905000D03*
X221615000Y-129540000D03*
X220980000Y-129540000D03*
X222250000Y-128905000D03*
X222250000Y-130175000D03*
X223520000Y-130175000D03*
X223520000Y-129540000D03*
X222885000Y-129540000D03*
X222250000Y-129540000D03*
X222885000Y-128905000D03*
X223520000Y-128905000D03*
X222885000Y-130175000D03*
X151130000Y-135255000D03*
X151130000Y-134620000D03*
X150495000Y-135255000D03*
X149860000Y-135255000D03*
X154940000Y-133985000D03*
X154940000Y-135255000D03*
X154305000Y-133985000D03*
X154305000Y-135255000D03*
X154305000Y-134620000D03*
X154940000Y-134620000D03*
X153670000Y-135255000D03*
X152400000Y-133985000D03*
X151765000Y-134620000D03*
X152400000Y-134620000D03*
X152400000Y-135255000D03*
X151765000Y-135255000D03*
X151765000Y-133985000D03*
X153670000Y-133985000D03*
X153670000Y-134620000D03*
X153035000Y-133985000D03*
X153035000Y-134620000D03*
X153035000Y-135255000D03*
X151130000Y-133985000D03*
X149860000Y-133985000D03*
X149860000Y-134620000D03*
X150495000Y-134620000D03*
X150495000Y-133985000D03*
X223520000Y-139065000D03*
X222885000Y-139065000D03*
X222250000Y-139065000D03*
X221615000Y-139065000D03*
X220980000Y-139065000D03*
X220980000Y-139700000D03*
X221615000Y-139700000D03*
X222250000Y-139700000D03*
X222885000Y-139700000D03*
X223520000Y-139700000D03*
X223520000Y-140335000D03*
X222885000Y-140335000D03*
X222250000Y-140335000D03*
X221615000Y-140335000D03*
X220980000Y-140335000D03*
X220345000Y-140335000D03*
X220345000Y-139700000D03*
X220345000Y-139065000D03*
X219710000Y-139065000D03*
X219710000Y-139700000D03*
X219710000Y-140335000D03*
X219075000Y-140335000D03*
X219075000Y-139700000D03*
X219075000Y-139065000D03*
X218440000Y-139065000D03*
X218440000Y-139700000D03*
X218440000Y-140335000D03*
X149860000Y-145415000D03*
X150495000Y-145415000D03*
X151130000Y-145415000D03*
X151765000Y-145415000D03*
X152400000Y-145415000D03*
X153035000Y-145415000D03*
X153670000Y-145415000D03*
X154305000Y-145415000D03*
X154940000Y-145415000D03*
X154940000Y-144780000D03*
X154305000Y-144780000D03*
X153670000Y-144780000D03*
X153035000Y-144780000D03*
X152400000Y-144780000D03*
X151765000Y-144780000D03*
X151130000Y-144780000D03*
X150495000Y-144780000D03*
X149860000Y-144780000D03*
X149860000Y-144145000D03*
X150495000Y-144145000D03*
X151130000Y-144145000D03*
X151765000Y-144145000D03*
X152400000Y-144145000D03*
X153035000Y-144145000D03*
X153670000Y-144145000D03*
X154305000Y-144145000D03*
X154940000Y-144145000D03*
X262890000Y-118745000D03*
X243840000Y-118745000D03*
X264550990Y-119380000D03*
X245745000Y-119380000D03*
X247650000Y-120015000D03*
X261620000Y-120015000D03*
X249555000Y-120650000D03*
X263525000Y-120650000D03*
X251460000Y-121285000D03*
X260694998Y-121285000D03*
X253365000Y-121920000D03*
X262255000Y-121920000D03*
X255270000Y-122555000D03*
X259850000Y-122555000D03*
X257175000Y-123190000D03*
X260985000Y-122555000D03*
X257175000Y-130810000D03*
X260350000Y-131445000D03*
X259080000Y-131445000D03*
X255270000Y-131445000D03*
X253365000Y-132080000D03*
X261620000Y-132080000D03*
X251460000Y-132715000D03*
X260044998Y-132715000D03*
X249555000Y-133350000D03*
X262890000Y-133350000D03*
X247650000Y-133985000D03*
X260970000Y-133985000D03*
X245745000Y-134620000D03*
X264160000Y-134620000D03*
X262465736Y-135255000D03*
X243840000Y-135255000D03*
X187325000Y-95250000D03*
X131572000Y-95250000D03*
X245745000Y-95250000D03*
X144780000Y-95250000D03*
X261620000Y-102870000D03*
X245745000Y-102870000D03*
X186436000Y-94615000D03*
X130937000Y-94615000D03*
X247650000Y-94615000D03*
X144145000Y-94615000D03*
X263525000Y-103505000D03*
X247650000Y-103505000D03*
X189865000Y-62865000D03*
X200025000Y-151765000D03*
X180975000Y-151765000D03*
X231140000Y-151765000D03*
X260694998Y-104140000D03*
X249555000Y-104140000D03*
X190500000Y-63500000D03*
X205740000Y-152400000D03*
X186690000Y-152400000D03*
X236855000Y-152400000D03*
X262255000Y-104775000D03*
X251460000Y-104775000D03*
X259850000Y-105410000D03*
X253365000Y-105410000D03*
X258445000Y-106045000D03*
X255270000Y-106045000D03*
X258445000Y-113665000D03*
X255270000Y-113665000D03*
X259080000Y-114300000D03*
X253365000Y-114300000D03*
X261620000Y-114935000D03*
X251460000Y-114935000D03*
X260044998Y-115570000D03*
X249555000Y-115570000D03*
X262890000Y-116205000D03*
X247650000Y-116205000D03*
X260970000Y-116840000D03*
X245745000Y-116840000D03*
X264545000Y-117475000D03*
X266065000Y-119380000D03*
X266065000Y-128270000D03*
X243840000Y-117475000D03*
X266700000Y-127635000D03*
X262255000Y-118110000D03*
X241935000Y-118110000D03*
X257175000Y-111125000D03*
X257175000Y-95885000D03*
X238760000Y-95885000D03*
X247650000Y-173355000D03*
X257175000Y-61595000D03*
X256540000Y-110490000D03*
X246380000Y-172720000D03*
X256540000Y-96520000D03*
X234315000Y-96520000D03*
X254635000Y-60960000D03*
X144780000Y-102235000D03*
X220345000Y-135255000D03*
X220345000Y-125095000D03*
X145415000Y-101600000D03*
X146050000Y-102235000D03*
X220345000Y-114300000D03*
X246380000Y-67310000D03*
X194310000Y-67310000D03*
X249555000Y-58735000D03*
X194310000Y-66040000D03*
X242570000Y-58420000D03*
X227965000Y-58420000D03*
X211455000Y-58420000D03*
X265430000Y-125730000D03*
X265430000Y-108585000D03*
X262890000Y-101600000D03*
X241935000Y-101600000D03*
X264795000Y-102235000D03*
X243840000Y-102235000D03*
X266700000Y-166690000D03*
X267970000Y-119994540D03*
X274320000Y-166690000D03*
X266715227Y-109219393D03*
X281940000Y-166690000D03*
X267335000Y-108585000D03*
X271272000Y-78105000D03*
X222885000Y-78105000D03*
X269240000Y-80645000D03*
X216535000Y-78105000D03*
X279400000Y-81915000D03*
X213995000Y-78105000D03*
X215265000Y-81280000D03*
X280416000Y-81280000D03*
X266192000Y-82550000D03*
X212583000Y-81773000D03*
X281940000Y-84455000D03*
X208915000Y-78105000D03*
X262128000Y-87630000D03*
X201930000Y-83820000D03*
X224790000Y-91455000D03*
X237456350Y-99830000D03*
X224790000Y-96505000D03*
X237456350Y-100630000D03*
X214630000Y-96505000D03*
X237456350Y-105430000D03*
X209550000Y-91455000D03*
X237456350Y-107030000D03*
X209550000Y-96505000D03*
X237456350Y-107830000D03*
X143510000Y-163830000D03*
X173990000Y-163830000D03*
X146050000Y-162560000D03*
X176530000Y-162560000D03*
X148590000Y-161290000D03*
X191770000Y-161290000D03*
X151130000Y-160020000D03*
X188595000Y-160020000D03*
X153670000Y-158750000D03*
X196225010Y-158750000D03*
X157480000Y-157480000D03*
X194310000Y-157480000D03*
X160020000Y-156210000D03*
X212725000Y-156210000D03*
X162560000Y-154940000D03*
X211455000Y-154940000D03*
X248285000Y-62230000D03*
X165100000Y-153670000D03*
X227330000Y-153670000D03*
D25*
X257175000Y-76835000D02*
X275336000Y-76835000D01*
X225425000Y-76835000D02*
X257175000Y-76835000D01*
X256540000Y-76200000D02*
X276352000Y-76200000D01*
X226060000Y-76200000D02*
X256540000Y-76200000D01*
X257810000Y-77470000D02*
X270256000Y-77470000D01*
X257810000Y-77470000D02*
X223520000Y-77470000D01*
X277368000Y-79375000D02*
X219710000Y-79375000D01*
X219075000Y-78740000D02*
X219710000Y-79375000D01*
X219075000Y-78105000D02*
X219075000Y-78740000D01*
X259080000Y-78740000D02*
X278384000Y-78740000D01*
X220980000Y-78740000D02*
X259080000Y-78740000D01*
X217805000Y-80010000D02*
X268224000Y-80010000D01*
X212090000Y-83185000D02*
X267208000Y-83185000D01*
X211455000Y-82550000D02*
X212090000Y-83185000D01*
X211455000Y-78105000D02*
X211455000Y-82550000D01*
X274320000Y-83820000D02*
X209550000Y-83820000D01*
X207010000Y-85725000D02*
X265176000Y-85725000D01*
X206375000Y-85090000D02*
X207010000Y-85725000D01*
X206375000Y-78105000D02*
X206375000Y-85090000D01*
X207645000Y-85090000D02*
X264160000Y-85090000D01*
X207010000Y-84455000D02*
X207645000Y-85090000D01*
X207010000Y-83820000D02*
X207010000Y-84455000D01*
X204470000Y-86995000D02*
X273304000Y-86995000D01*
X203835000Y-86360000D02*
X204470000Y-86995000D01*
X203835000Y-78105000D02*
X203835000Y-86360000D01*
X205105000Y-86360000D02*
X272288000Y-86360000D01*
X204470000Y-85725000D02*
X205105000Y-86360000D01*
X204470000Y-83820000D02*
X204470000Y-85725000D01*
X201930000Y-88265000D02*
X263144000Y-88265000D01*
X201295000Y-87630000D02*
X201930000Y-88265000D01*
X201295000Y-78105000D02*
X201295000Y-87630000D01*
X243840000Y-118745000D02*
X228600000Y-118745000D01*
X228600000Y-118745000D02*
X227965000Y-118110000D01*
X227965000Y-118110000D02*
X227965000Y-108585000D01*
X227965000Y-108585000D02*
X227330000Y-107950000D01*
X227330000Y-107950000D02*
X110490000Y-107950000D01*
X110490000Y-107950000D02*
X109220000Y-109220000D01*
X262890000Y-118745000D02*
X243840000Y-118745000D01*
X245745000Y-119380000D02*
X227965000Y-119380000D01*
X227965000Y-119380000D02*
X227330000Y-118745000D01*
X227330000Y-118745000D02*
X227330000Y-111125000D01*
X227330000Y-111125000D02*
X226695000Y-110490000D01*
X226695000Y-110490000D02*
X110490000Y-110490000D01*
X110490000Y-110490000D02*
X109220000Y-111760000D01*
X245745000Y-119380000D02*
X264550990Y-119380000D01*
X247650000Y-120015000D02*
X227330000Y-120015000D01*
X227330000Y-120015000D02*
X226695000Y-119380000D01*
X226695000Y-119380000D02*
X226695000Y-113665000D01*
X226695000Y-113665000D02*
X226060000Y-113030000D01*
X226060000Y-113030000D02*
X110490000Y-113030000D01*
X110490000Y-113030000D02*
X109220000Y-114300000D01*
X247650000Y-120015000D02*
X261620000Y-120015000D01*
X249555000Y-120650000D02*
X226695000Y-120650000D01*
X226060000Y-116205000D02*
X225425000Y-115570000D01*
X226695000Y-120650000D02*
X226060000Y-120015000D01*
X226060000Y-120015000D02*
X226060000Y-116205000D01*
X225425000Y-115570000D02*
X110490000Y-115570000D01*
X110490000Y-115570000D02*
X109220000Y-116840000D01*
X263525000Y-120650000D02*
X249555000Y-120650000D01*
X251460000Y-121285000D02*
X226060000Y-121285000D01*
X226060000Y-121285000D02*
X225425000Y-120650000D01*
X225425000Y-120650000D02*
X225425000Y-118745000D01*
X224790000Y-118110000D02*
X110490000Y-118110000D01*
X225425000Y-118745000D02*
X224790000Y-118110000D01*
X110490000Y-118110000D02*
X109220000Y-119380000D01*
X260694998Y-121285000D02*
X251460000Y-121285000D01*
X253365000Y-121920000D02*
X225425000Y-121920000D01*
X110490000Y-120650000D02*
X109220000Y-121920000D01*
X225425000Y-121920000D02*
X224155000Y-120650000D01*
X224155000Y-120650000D02*
X110490000Y-120650000D01*
X262255000Y-121920000D02*
X253365000Y-121920000D01*
X259850000Y-122555000D02*
X255270000Y-122555000D01*
X110490000Y-123190000D02*
X109220000Y-124460000D01*
X229870000Y-123190000D02*
X110490000Y-123190000D01*
X229870000Y-123190000D02*
X230505000Y-122555000D01*
X255270000Y-122555000D02*
X230505000Y-122555000D01*
X260350000Y-123190000D02*
X257175000Y-123190000D01*
X257175000Y-123190000D02*
X231140000Y-123190000D01*
X230505000Y-123825000D02*
X231140000Y-123190000D01*
X230505000Y-125095000D02*
X230505000Y-123825000D01*
X229870000Y-125730000D02*
X230505000Y-125095000D01*
X110490000Y-125730000D02*
X109220000Y-127000000D01*
X229870000Y-125730000D02*
X110490000Y-125730000D01*
X260985000Y-122555000D02*
X260350000Y-123190000D01*
X257175000Y-130810000D02*
X259715000Y-130810000D01*
X109220000Y-129540000D02*
X109220000Y-128528000D01*
X109220000Y-128528000D02*
X109478000Y-128270000D01*
X109478000Y-128270000D02*
X229870000Y-128270000D01*
X230505000Y-128905000D02*
X229870000Y-128270000D01*
X230505000Y-130175000D02*
X230505000Y-128905000D01*
X257175000Y-130810000D02*
X231140000Y-130810000D01*
X231140000Y-130810000D02*
X230505000Y-130175000D01*
X260350000Y-131445000D02*
X259715000Y-130810000D01*
X255270000Y-131445000D02*
X259080000Y-131445000D01*
X110490000Y-130810000D02*
X109220000Y-132080000D01*
X230505000Y-131445000D02*
X229870000Y-130810000D01*
X229870000Y-130810000D02*
X110490000Y-130810000D01*
X255270000Y-131445000D02*
X230505000Y-131445000D01*
X253365000Y-132080000D02*
X261620000Y-132080000D01*
X253365000Y-132080000D02*
X234315000Y-132080000D01*
X234315000Y-132080000D02*
X233045000Y-133350000D01*
X233045000Y-133350000D02*
X110490000Y-133350000D01*
X110490000Y-133350000D02*
X109220000Y-134620000D01*
X251460000Y-132715000D02*
X234950000Y-132715000D01*
X234950000Y-132715000D02*
X233680000Y-133985000D01*
X233680000Y-133985000D02*
X233680000Y-135255000D01*
X233680000Y-135255000D02*
X233045000Y-135890000D01*
X233045000Y-135890000D02*
X110490000Y-135890000D01*
X110490000Y-135890000D02*
X109220000Y-137160000D01*
X260044998Y-132715000D02*
X251460000Y-132715000D01*
X236855000Y-133350000D02*
X249555000Y-133350000D01*
X109220000Y-139700000D02*
X110490000Y-138430000D01*
X110490000Y-138430000D02*
X235585000Y-138430000D01*
X235585000Y-138430000D02*
X236220000Y-137795000D01*
X236220000Y-137795000D02*
X236220000Y-133985000D01*
X236220000Y-133985000D02*
X236855000Y-133350000D01*
X249555000Y-133350000D02*
X262890000Y-133350000D01*
X247650000Y-133985000D02*
X237490000Y-133985000D01*
X109220000Y-142240000D02*
X110490000Y-140970000D01*
X236220000Y-140970000D02*
X236855000Y-140335000D01*
X110490000Y-140970000D02*
X236220000Y-140970000D01*
X236855000Y-140335000D02*
X236855000Y-134620000D01*
X236855000Y-134620000D02*
X237490000Y-133985000D01*
X260970000Y-133985000D02*
X247650000Y-133985000D01*
X109220000Y-144780000D02*
X110490000Y-143510000D01*
X110490000Y-143510000D02*
X236855000Y-143510000D01*
X236855000Y-143510000D02*
X237490000Y-142875000D01*
X237490000Y-142875000D02*
X237490000Y-135255000D01*
X237490000Y-135255000D02*
X238125000Y-134620000D01*
X238125000Y-134620000D02*
X245745000Y-134620000D01*
X245745000Y-134620000D02*
X264160000Y-134620000D01*
X261620000Y-135255000D02*
X262465736Y-135255000D01*
X243840000Y-135255000D02*
X261620000Y-135255000D01*
X238760000Y-135255000D02*
X243840000Y-135255000D01*
X238760000Y-135255000D02*
X238125000Y-135890000D01*
X109220000Y-147320000D02*
X110490000Y-146050000D01*
X110490000Y-146050000D02*
X237490000Y-146050000D01*
X237490000Y-146050000D02*
X238125000Y-145415000D01*
X238125000Y-145415000D02*
X238125000Y-135890000D01*
X187325000Y-95250000D02*
X144780000Y-95250000D01*
X187325000Y-95250000D02*
X245745000Y-95250000D01*
X144780000Y-95250000D02*
X131572000Y-95250000D01*
X289560000Y-71120000D02*
X291465000Y-69215000D01*
X291465000Y-69215000D02*
X291465000Y-67945000D01*
X291465000Y-67945000D02*
X290830000Y-67310000D01*
X283845000Y-67310000D02*
X283210000Y-67945000D01*
X290830000Y-67310000D02*
X283845000Y-67310000D01*
X283210000Y-67945000D02*
X283210000Y-102235000D01*
X283210000Y-102235000D02*
X282575000Y-102870000D01*
X282575000Y-102870000D02*
X261620000Y-102870000D01*
X245745000Y-102870000D02*
X261620000Y-102870000D01*
X186436000Y-94615000D02*
X144145000Y-94615000D01*
X186436000Y-94615000D02*
X247650000Y-94615000D01*
X144145000Y-94615000D02*
X130937000Y-94615000D01*
X284480000Y-68580000D02*
X289560000Y-68580000D01*
X283845000Y-69215000D02*
X284480000Y-68580000D01*
X283845000Y-102870000D02*
X283845000Y-69215000D01*
X263525000Y-103505000D02*
X283210000Y-103505000D01*
X283210000Y-103505000D02*
X283845000Y-102870000D01*
X247650000Y-103505000D02*
X263525000Y-103505000D01*
X285115000Y-84455000D02*
X285115000Y-103505000D01*
X284480000Y-104140000D02*
X260694998Y-104140000D01*
X285115000Y-103505000D02*
X284480000Y-104140000D01*
X285750000Y-83820000D02*
X285115000Y-84455000D01*
X290830000Y-83820000D02*
X285750000Y-83820000D01*
X291465000Y-84455000D02*
X290830000Y-83820000D01*
X291465000Y-85725000D02*
X291465000Y-84455000D01*
X289560000Y-87630000D02*
X291465000Y-85725000D01*
X249555000Y-104140000D02*
X260694998Y-104140000D01*
X285115000Y-104775000D02*
X262255000Y-104775000D01*
X285750000Y-104140000D02*
X285115000Y-104775000D01*
X285750000Y-85725000D02*
X285750000Y-104140000D01*
X286385000Y-85090000D02*
X285750000Y-85725000D01*
X289560000Y-85090000D02*
X286385000Y-85090000D01*
X251460000Y-104775000D02*
X262255000Y-104775000D01*
X285750000Y-105410000D02*
X259850000Y-105410000D01*
X286385000Y-104775000D02*
X285750000Y-105410000D01*
X286385000Y-100965000D02*
X286385000Y-104775000D01*
X287020000Y-100330000D02*
X286385000Y-100965000D01*
X290830000Y-100330000D02*
X287020000Y-100330000D01*
X291465000Y-100965000D02*
X290830000Y-100330000D01*
X291465000Y-102235000D02*
X291465000Y-100965000D01*
X289560000Y-104140000D02*
X291465000Y-102235000D01*
X253365000Y-105410000D02*
X259850000Y-105410000D01*
X255270000Y-106045000D02*
X258445000Y-106045000D01*
X258445000Y-106045000D02*
X286385000Y-106045000D01*
X287655000Y-101600000D02*
X289560000Y-101600000D01*
X287020000Y-102235000D02*
X287655000Y-101600000D01*
X287020000Y-105410000D02*
X287020000Y-102235000D01*
X286385000Y-106045000D02*
X287020000Y-105410000D01*
X255270000Y-113665000D02*
X258445000Y-113665000D01*
X258445000Y-113665000D02*
X287020000Y-113665000D01*
X290830000Y-116840000D02*
X288290000Y-116840000D01*
X287655000Y-116205000D02*
X288290000Y-116840000D01*
X287655000Y-114300000D02*
X287655000Y-116205000D01*
X287020000Y-113665000D02*
X287655000Y-114300000D01*
X291465000Y-117475000D02*
X290830000Y-116840000D01*
X291465000Y-118745000D02*
X291465000Y-117475000D01*
X289560000Y-120650000D02*
X291465000Y-118745000D01*
X287655000Y-118110000D02*
X289560000Y-118110000D01*
X287020000Y-117475000D02*
X287655000Y-118110000D01*
X287020000Y-114935000D02*
X287020000Y-117475000D01*
X286385000Y-114300000D02*
X287020000Y-114935000D01*
X259080000Y-114300000D02*
X286385000Y-114300000D01*
X253365000Y-114300000D02*
X259080000Y-114300000D01*
X290830000Y-133350000D02*
X287020000Y-133350000D01*
X286385000Y-132715000D02*
X287020000Y-133350000D01*
X286385000Y-115570000D02*
X286385000Y-132715000D01*
X285750000Y-114935000D02*
X286385000Y-115570000D01*
X261620000Y-114935000D02*
X285750000Y-114935000D01*
X291465000Y-133985000D02*
X290830000Y-133350000D01*
X291465000Y-135255000D02*
X291465000Y-133985000D01*
X289560000Y-137160000D02*
X291465000Y-135255000D01*
X261620000Y-114935000D02*
X251460000Y-114935000D01*
X286385000Y-134620000D02*
X289560000Y-134620000D01*
X285750000Y-133985000D02*
X286385000Y-134620000D01*
X285750000Y-116205000D02*
X285750000Y-133985000D01*
X285115000Y-115570000D02*
X285750000Y-116205000D01*
X260044998Y-115570000D02*
X285115000Y-115570000D01*
X249555000Y-115570000D02*
X260044998Y-115570000D01*
X284480000Y-116205000D02*
X262890000Y-116205000D01*
X285115000Y-116840000D02*
X284480000Y-116205000D01*
X285115000Y-149225000D02*
X285115000Y-116840000D01*
X290830000Y-149860000D02*
X285750000Y-149860000D01*
X285750000Y-149860000D02*
X285115000Y-149225000D01*
X291465000Y-150495000D02*
X290830000Y-149860000D01*
X291465000Y-151765000D02*
X291465000Y-150495000D01*
X289560000Y-153670000D02*
X291465000Y-151765000D01*
X262890000Y-116205000D02*
X247650000Y-116205000D01*
X260970000Y-116840000D02*
X283845000Y-116840000D01*
X284480000Y-117475000D02*
X283845000Y-116840000D01*
X284480000Y-150495000D02*
X284480000Y-117475000D01*
X285115000Y-151130000D02*
X284480000Y-150495000D01*
X285115000Y-151130000D02*
X289560000Y-151130000D01*
X245745000Y-116840000D02*
X260970000Y-116840000D01*
X264545000Y-117475000D02*
X283210000Y-117475000D01*
X283845000Y-165735000D02*
X284480000Y-166370000D01*
X291465000Y-168275000D02*
X289560000Y-170180000D01*
X283210000Y-117475000D02*
X283845000Y-118110000D01*
X283845000Y-118110000D02*
X283845000Y-165735000D01*
X284480000Y-166370000D02*
X290830000Y-166370000D01*
X290830000Y-166370000D02*
X291465000Y-167005000D01*
X291465000Y-167005000D02*
X291465000Y-168275000D01*
X264545000Y-117475000D02*
X243840000Y-117475000D01*
X243840000Y-117475000D02*
X229870000Y-117475000D01*
X229870000Y-117475000D02*
X229235000Y-116840000D01*
X228600000Y-102870000D02*
X109478000Y-102870000D01*
X109220000Y-103128000D02*
X109220000Y-104140000D01*
X229235000Y-116840000D02*
X229235000Y-103505000D01*
X229235000Y-103505000D02*
X228600000Y-102870000D01*
X109478000Y-102870000D02*
X109220000Y-103128000D01*
X266065000Y-128270000D02*
X266065000Y-119380000D01*
X227965000Y-105410000D02*
X110490000Y-105410000D01*
X228600000Y-106045000D02*
X227965000Y-105410000D01*
X241935000Y-118110000D02*
X229235000Y-118110000D01*
X229235000Y-118110000D02*
X228600000Y-117475000D01*
X228600000Y-117475000D02*
X228600000Y-106045000D01*
X282575000Y-118110000D02*
X267335000Y-118110000D01*
X266700000Y-118745000D02*
X267335000Y-118110000D01*
X289560000Y-167640000D02*
X283845000Y-167640000D01*
X283845000Y-167640000D02*
X283210000Y-167005000D01*
X283210000Y-118745000D02*
X282575000Y-118110000D01*
X283210000Y-167005000D02*
X283210000Y-118745000D01*
X266065000Y-118110000D02*
X262255000Y-118110000D01*
X266700000Y-118745000D02*
X266065000Y-118110000D01*
X266700000Y-127635000D02*
X266700000Y-118745000D01*
X109220000Y-106680000D02*
X110490000Y-105410000D01*
X241935000Y-118110000D02*
X262255000Y-118110000D01*
X257175000Y-95885000D02*
X238760000Y-95885000D01*
X234315000Y-96520000D02*
X256540000Y-96520000D01*
X194310000Y-67310000D02*
X246380000Y-67310000D01*
X248285000Y-66040000D02*
X194310000Y-66040000D01*
X249555000Y-64770000D02*
X248285000Y-66040000D01*
X249555000Y-58735000D02*
X249555000Y-64770000D01*
X211455000Y-58420000D02*
X227965000Y-58420000D01*
X227965000Y-58420000D02*
X242570000Y-58420000D01*
X241935000Y-101600000D02*
X262890000Y-101600000D01*
X264795000Y-102235000D02*
X243840000Y-102235000D01*
X258445000Y-78105000D02*
X271272000Y-78105000D01*
X222885000Y-78105000D02*
X258445000Y-78105000D01*
X217170000Y-80645000D02*
X269240000Y-80645000D01*
X216535000Y-80010000D02*
X217170000Y-80645000D01*
X216535000Y-78105000D02*
X216535000Y-80010000D01*
X279400000Y-81915000D02*
X214630000Y-81915000D01*
X213995000Y-81280000D02*
X214630000Y-81915000D01*
X213995000Y-78105000D02*
X213995000Y-81280000D01*
X215265000Y-81280000D02*
X280416000Y-81280000D01*
X266192000Y-82550000D02*
X213360000Y-82550000D01*
X213360000Y-82550000D02*
X213370000Y-82540000D01*
X212583000Y-81773000D02*
X213360000Y-82550000D01*
X208915000Y-78105000D02*
X208915000Y-84110002D01*
X209259998Y-84455000D02*
X281940000Y-84455000D01*
X208915000Y-84110002D02*
X209259998Y-84455000D01*
X202565000Y-87630000D02*
X262128000Y-87630000D01*
X201930000Y-86995000D02*
X202565000Y-87630000D01*
X201930000Y-83820000D02*
X201930000Y-86995000D01*
M02*
